<svg width="449" height="512" viewBox="0 0 449 512" fill="none" xmlns="http://www.w3.org/2000/svg">
<path d="M52.8112 413.247C54.3873 412.231 55.2856 411.069 55.5562 409.695C55.861 408.158 55.4516 406.191 54.3395 403.855C54.037 403.218 53.7141 402.563 53.4025 401.929C52.2973 399.682 51.1556 397.36 50.3574 394.844C44.7764 377.251 46.3479 359.069 55.0309 340.802C57.2209 336.199 60.489 332.231 63.6433 328.394C64.2278 327.685 64.8305 326.95 65.4104 326.234C67.4162 323.748 68.2895 322.181 68.3259 321.003C68.3623 319.825 67.5572 318.294 65.7128 315.972C65.4286 315.618 65.1648 315.265 64.91 314.924C64.5303 314.419 64.1732 313.942 63.8093 313.528C51.5286 299.534 45.3768 282.314 45.0198 260.884C44.6832 240.644 51.4171 221.888 65.0329 205.145C82.5125 183.663 105.684 172.77 133.907 172.77H134.612C154.757 172.899 173.076 179.445 189.064 192.221C214.826 212.81 225.181 240.871 219.845 275.623C218.749 282.751 216.662 289.737 214.658 296.492C213.785 299.421 212.882 302.452 212.084 305.422C211.285 308.392 212.065 311.499 213.917 312.598C214.365 312.884 214.883 313.042 215.415 313.052C216.586 313.052 218.167 312.163 219.982 310.482C221.315 309.25 222.656 307.933 223.955 306.66C227.082 303.587 230.323 300.41 234.018 297.79C251.53 285.409 269.473 273.026 286.823 261.052C291.656 257.716 296.652 254.266 301.565 250.871C314.473 241.945 325.822 231.767 335.294 220.594C345.101 209.013 353.2 196.087 359.343 182.21C364.206 171.264 367.303 160.059 368.549 148.902C369.807 137.651 369.232 126.062 366.826 114.452C363.936 100.485 358.982 87.0267 352.127 74.5192C349.885 70.3828 347.19 66.5081 344.093 62.9662C343.476 62.268 342.371 61.8677 341.059 61.8677C339.857 61.8625 338.677 62.1882 337.647 62.8092C335.28 64.3102 334.136 66.5731 334.736 68.5766C337.122 76.5364 337.722 84.8555 336.579 93.9864C334.532 110.249 327.109 122.71 314.505 131.015C308.085 135.248 301.158 138.775 294.456 142.186L292.666 143.096C284.999 147.007 278.272 151.808 272.673 157.367C266.857 163.166 262.065 169.91 258.503 177.311C253.298 188.018 250.593 199.767 250.591 211.672C250.559 221.431 250.554 231.356 250.55 240.953C250.55 249.722 250.55 258.79 250.518 267.711C250.518 269.36 250.518 272.123 248.455 273.572C245.53 275.642 242.458 277.566 239.488 279.428C238.478 280.06 237.441 280.715 236.406 281.368C235.999 281.626 235.539 281.789 235.06 281.844C234.581 281.898 234.096 281.844 233.642 281.684C233.187 281.523 232.775 281.262 232.436 280.92C232.097 280.577 231.84 280.162 231.685 279.706C231.621 279.519 231.569 279.387 231.521 279.251C231.301 278.742 231.182 278.195 231.171 277.641V272.537C231.151 235.126 231.128 196.442 231.194 158.392C231.194 156.691 232.047 154.915 233.714 153.111C235.515 151.167 237.405 149.273 239.233 147.444C242.858 143.805 246.283 140.394 249.137 136.514C256.467 126.574 261.125 114.477 262.983 100.561C263.855 94.1775 264.126 87.7262 263.795 81.2918C263.448 74.8629 262.398 68.4913 260.665 62.2907C258.041 52.9664 253.977 43.8696 248.241 34.5453C244.057 27.7227 240.35 22.3464 236.572 17.6161C232.024 11.9078 227.389 7.20244 222.429 3.22938C219.438 0.846008 217.885 0 216.48 0C215.031 0 213.068 0.909686 210.339 2.88598L209.914 3.1839C209.375 3.54275 208.863 3.94026 208.381 4.37331C197.563 14.8756 189.114 25.0937 182.551 35.6119C175.093 47.5606 170.133 59.755 167.382 72.8863C165.891 79.9687 165.216 87.1985 165.369 94.4345C165.546 101.636 166.528 108.795 168.296 115.778C172.335 131.836 181.821 145.959 197.294 158.952C200.114 161.317 203.066 163.657 205.936 165.918C208.931 168.292 212.031 170.746 215.022 173.266C217.219 175.119 220.227 177.657 220.632 180.998C221.114 184.98 221.03 188.88 220.939 193.01C220.905 194.602 220.869 196.256 220.869 197.907C220.869 198.501 220.702 199.084 220.387 199.589C220.073 200.094 219.623 200.501 219.089 200.763C218.555 201.025 217.958 201.133 217.367 201.073C216.775 201.014 216.211 200.79 215.74 200.426C215.513 200.249 215.286 200.097 215.081 199.951C214.44 199.548 213.87 199.042 213.393 198.452C205.568 188.191 195.291 180.695 185.434 173.891C176.337 167.616 167.589 161.285 160.534 152.823C148.849 138.809 142.85 122.878 142.704 105.476C142.668 101.275 143.42 97.1567 144.148 93.1745C144.624 90.5751 145.072 88.1167 145.317 85.6469C145.442 84.3893 145.82 80.5663 144.755 78.3057C143.332 75.281 141.344 73.8096 138.672 73.8096C137.05 73.8096 135.208 74.3395 133.193 75.3856C131.356 76.3408 129.482 77.3051 127.669 78.2375C117.999 83.2089 107.997 88.3532 98.955 94.4208C84.9764 103.806 72.0997 114.735 60.5686 127.003C49.2885 139.009 39.0704 152.561 30.201 167.282C21.0427 182.483 13.8107 199.783 8.08654 220.173C4.07304 234.429 1.54431 249.062 0.540694 263.838C-0.180231 274.68 -0.180231 284.418 0.540694 293.606C1.57319 306.769 3.16286 318.622 5.39842 329.85C7.58122 340.676 10.712 351.289 14.7545 361.566C18.8245 371.872 23.6333 381.87 29.1435 391.483C33.3644 398.89 38.213 405.742 42.4021 411.471C43.9668 413.611 45.9727 414.742 48.2014 414.742C49.7024 414.746 51.2966 414.228 52.8112 413.247ZM261.484 206.749C261.727 205.516 261.966 204.247 262.196 203.03C262.714 200.301 263.251 197.454 263.895 194.659C265.897 185.957 269.577 177.728 274.729 170.434C278.486 165.139 283.088 160.497 288.349 156.693C294.126 152.527 300.155 148.572 305.988 144.747C311.901 140.86 318.041 136.842 323.841 132.637C333.786 125.423 340.442 115.544 343.626 103.274C343.883 102.287 344.218 101.357 344.513 100.545C344.688 100.082 344.926 99.6456 345.218 99.2467C345.332 99.0761 345.473 98.8669 345.657 98.5758C345.944 98.1218 346.341 97.7477 346.812 97.4885C347.282 97.2292 347.81 97.0932 348.348 97.093C348.515 97.0935 348.682 97.1065 348.848 97.1317C349.463 97.2296 350.035 97.5056 350.495 97.9256C350.955 98.3456 351.281 98.8911 351.434 99.4946C352.014 101.778 352.579 104.016 353.128 106.208C354.324 110.961 355.455 115.45 356.642 119.969C361.347 137.899 357.203 154.91 352.53 169.186C351.661 171.84 349.166 174.071 347.072 175.099C340.035 178.576 331.93 180.834 321.571 182.205C308.381 183.952 295.604 186.128 284.394 193.474C277.811 197.808 271.967 203.17 267.085 209.357C266.642 209.916 266.023 210.31 265.329 210.475C264.634 210.64 263.905 210.567 263.257 210.268C262.609 209.968 262.08 209.46 261.756 208.825C261.432 208.189 261.33 207.463 261.468 206.762L261.484 206.749ZM288.87 196.194C297.833 190.424 307.974 188.994 317.753 187.614L318.257 187.541C323.57 186.79 328.96 185.967 334.177 185.171C336.249 184.855 338.384 184.527 340.492 184.209C340.877 184.052 341.289 183.971 341.705 183.97C342.294 183.97 342.872 184.134 343.374 184.442C343.875 184.751 344.282 185.193 344.547 185.719C344.816 186.266 344.929 186.876 344.875 187.483C344.82 188.09 344.6 188.67 344.238 189.16C342.175 191.957 340.145 194.88 338.18 197.709C332.285 206.194 326.19 214.97 318.019 222.179C307.3 231.638 297.621 238.749 287.56 244.56C283.981 246.627 280.703 249.199 277.233 251.919C275.602 253.197 273.917 254.519 272.207 255.785C270.369 257.136 268.507 258.469 266.537 259.879C265.6 260.548 264.636 261.243 263.626 261.967C263.2 262.274 262.704 262.47 262.182 262.539C261.661 262.608 261.131 262.546 260.64 262.36C260.148 262.174 259.71 261.87 259.365 261.473C259.02 261.077 258.778 260.601 258.662 260.088C258.564 259.661 258.452 259.263 258.343 258.876C258.084 257.966 257.813 257 257.829 255.895C258.193 229.302 268.634 209.228 288.87 196.192V196.194ZM223.978 25.7759C223.977 25.0974 224.193 24.4364 224.594 23.8893C224.996 23.3422 225.561 22.9376 226.209 22.7345C226.856 22.5314 227.551 22.5404 228.193 22.7602C228.835 22.9801 229.39 23.3992 229.777 23.9566L232.856 28.3936C235.028 31.5252 237.079 34.4839 239.156 37.4563C245.51 46.5532 249.549 55.1952 251.505 63.894C254.036 75.1537 254.6 86.3951 253.183 97.3113C251.548 109.908 248.078 119.578 242.267 127.745C239.927 131.031 237.166 133.967 234.498 136.808C233.341 138.038 232.144 139.309 231.019 140.576C230.574 141.075 229.983 141.422 229.329 141.567C228.676 141.711 227.994 141.646 227.38 141.381L226.643 141.063L225.906 140.744C225.334 140.499 224.846 140.09 224.503 139.57C224.16 139.05 223.977 138.44 223.978 137.817V25.7759ZM213.494 153.521C213.023 153.804 212.487 153.96 211.937 153.974C211.388 153.989 210.845 153.861 210.36 153.603C199.525 147.849 190.958 139.682 184.17 128.639C176.233 115.728 172.783 101.189 173.918 85.4286C175.548 62.7456 184.909 42.48 202.534 23.4813C204.126 21.7665 205.793 20.12 207.408 18.5257C207.949 17.989 208.493 17.4546 209.034 16.9156C209.685 16.2827 210.552 15.9196 211.46 15.899C211.589 15.8828 211.718 15.8744 211.847 15.874C212.691 15.874 213.501 16.2095 214.098 16.8066C214.695 17.4037 215.031 18.2135 215.031 19.0579C215.031 62.741 215.031 105.514 215.031 150.796C215.031 151.344 214.889 151.883 214.62 152.36C214.351 152.838 213.963 153.237 213.494 153.521ZM13.3855 262.037C12.7214 253.488 13.8403 244.753 16.8764 234.587C18.0135 230.78 19.1506 226.889 20.2263 223.123C23.6695 211.193 27.2331 198.855 31.8816 187.093C36.7712 174.721 44.6172 163.718 52.2177 153.507C63.8343 137.92 78.8942 123.59 98.25 109.701C105.819 104.273 114.397 98.1187 124.563 95.2077C125.218 95.0189 125.859 94.8484 126.537 94.6664L127.49 94.4117C127.983 94.2778 128.502 94.2647 129.001 94.3735C129.501 94.4823 129.967 94.7099 130.36 95.0369C130.753 95.364 131.062 95.7809 131.259 96.2524C131.457 96.7239 131.539 97.2361 131.497 97.7457C130.633 108.187 131.631 118.33 134.453 127.89C137.219 137.231 141.831 146.334 148.158 154.954C148.506 155.428 148.716 155.99 148.765 156.576C148.814 157.163 148.699 157.751 148.433 158.277C148.167 158.802 147.761 159.243 147.259 159.551C146.758 159.859 146.181 160.023 145.592 160.023H133.728C119.714 160.023 106.533 162.752 94.5499 168.099C82.8559 173.329 71.9124 181.225 62.0286 191.593C56.5913 197.296 51.6867 203.483 47.3759 210.078C43.0664 216.701 39.338 223.685 36.2322 230.951C34.0262 236.093 31.2039 240.958 28.4749 245.681C27.0558 248.13 25.5889 250.664 24.2471 253.172C23.0736 255.365 21.9865 257.703 20.9358 259.963C20.4469 261.016 19.9397 262.103 19.428 263.174C19.1252 263.807 18.6218 264.322 17.996 264.64C17.3702 264.957 16.6571 265.059 15.9676 264.929C15.278 264.799 14.6506 264.446 14.1828 263.923C13.7151 263.4 13.4332 262.737 13.3809 262.037H13.3855ZM41.0103 341.712C38.611 348.621 37.0327 356.167 36.189 364.782C36.1211 365.474 35.828 366.126 35.3546 366.636C34.8812 367.147 34.2536 367.488 33.5678 367.608C32.882 367.727 32.1759 367.619 31.5576 367.299C30.9392 366.979 30.4427 366.466 30.1441 365.837C29.728 364.964 29.2845 364.068 28.8547 363.203C27.8813 361.238 26.8738 359.208 26.0255 357.083C20.4151 343.013 16.9059 329.968 15.2981 317.198C13.9699 306.63 14.5544 297.915 17.1402 289.771C17.57 288.407 17.9862 287.008 18.3887 285.646C20.3673 278.937 22.4141 272.001 27.6061 265.737C28.0091 265.252 28.5472 264.897 29.1523 264.718C29.7573 264.538 30.402 264.543 31.0044 264.731C31.6068 264.919 32.1398 265.281 32.5357 265.773C32.9316 266.264 33.1725 266.862 33.228 267.491C34.1081 277.475 35.9184 286.185 38.7611 294.113C41.8791 302.812 46.1683 310.396 51.872 317.31C52.3306 317.865 52.5874 318.559 52.6006 319.279C52.6138 319.999 52.3826 320.702 51.9448 321.274C47.2178 327.45 43.5249 334.352 41.0103 341.712Z" fill="#246E7F"/>
<path d="M376.361 343.418C385.588 336.57 394.058 328.758 401.63 320.116C404.868 316.436 407.511 313.352 409.947 310.412C411.084 309.047 412.171 307.699 413.203 306.402C419.776 298.154 424.966 290.533 429.066 283.108C440.1 263.126 446.389 243.787 448.292 223.978C449.684 209.3 448.236 194.491 444.026 180.361C439.994 166.672 433.978 154.917 426.148 145.42C419.983 137.94 412.787 131.156 405.339 124.288C404.714 123.71 402.96 123.114 401.109 123.114C400.728 123.112 400.348 123.142 399.972 123.205C397.527 123.64 395.831 124.606 394.926 126.08C393.561 128.281 394.082 131.37 394.746 133.571C398.68 146.6 399.051 160.941 395.883 177.414C393.986 187.261 390.168 197.361 383.866 209.198C373.384 228.884 358.622 246.086 339.987 260.329C331.643 266.697 322.769 272.587 314.184 278.273C310.968 280.406 307.641 282.61 304.405 284.804C298.574 288.748 292.627 292.721 286.878 296.564C280.055 301.113 273.005 305.829 266.123 310.514C256.603 316.984 248.491 323.477 241.321 330.332C233.331 337.978 226.697 345.91 221.041 354.579C215.234 363.475 210.501 373.028 206.941 383.037C203.423 393.054 201.007 403.425 199.737 413.966C199.409 416.618 199.109 419.331 198.827 421.953C198.145 428.148 197.43 434.554 196.302 440.829C194.77 449.38 191.706 456.671 186.942 463.116C186.646 463.517 186.26 463.842 185.815 464.067C185.37 464.291 184.879 464.408 184.381 464.408H184.286C183.771 464.393 183.268 464.253 182.82 464C182.372 463.748 181.991 463.391 181.711 462.959C174.299 451.538 173.524 442.428 178.918 430.465L179.082 430.106C179.992 428.102 180.842 426.213 181.397 424.291C181.58 423.707 181.626 423.09 181.531 422.486C181.436 421.882 181.202 421.308 180.849 420.809C180.462 420.284 179.961 419.855 179.383 419.553C178.806 419.251 178.167 419.085 177.515 419.067C177.383 419.067 177.251 419.067 177.122 419.067C175.116 419.067 173.415 419.831 171.768 421.473C167.902 425.317 165.701 430.365 164.816 437.361C164.022 443.638 164.473 449.628 166.155 455.168C167.838 460.708 170.772 465.904 174.904 470.687C177.508 473.705 177.552 477.071 175.023 479.693C173.444 481.328 170.952 481.456 170.226 481.456C169.272 481.478 168.326 481.268 167.47 480.844C166.967 480.58 166.458 480.318 165.951 480.057C162.408 478.238 158.744 476.341 155.615 473.632C145.608 464.99 139.75 451.682 139.922 438.052C140.091 424.862 145.742 413.036 155.842 404.764C159.051 402.129 162.403 398.938 166.394 394.719C173.572 387.137 178.02 376.937 178.923 366.005C179.826 355.073 177.104 344.289 171.259 335.656C166.751 328.999 160.888 323.873 153.836 320.418C147.209 317.175 139.831 315.529 131.908 315.529C124.575 315.57 117.31 316.945 110.469 319.586C104.116 322.007 98.2926 325.637 93.3215 330.275C88.6025 334.639 84.4384 339.933 80.5859 346.46C72.5261 360.138 70.0768 375.434 73.0969 393.227C73.8542 397.678 75.2415 402.004 76.7107 406.584C77.4702 408.944 78.2526 411.385 78.9371 413.834C82.5645 426.815 89.7555 438.998 100.92 451.079C107.734 458.432 115.29 465.062 123.466 470.865C131.668 476.657 140.385 481.681 149.508 485.874C168.65 494.728 189.271 499.94 210.794 501.366C214.56 501.616 218.417 501.741 222.251 501.741C234.737 501.741 247.882 500.393 261.318 497.73C276.976 494.628 291.967 490.07 305.876 484.187C320.187 478.136 333.777 470.506 346.394 461.438C360.197 451.502 372.868 440.081 384.18 427.382C395.201 415.003 405.203 401.087 413.906 386.016C418.715 377.713 422.946 369.089 426.571 360.206C430.175 351.335 433.105 342.206 435.336 332.895C436.666 327.309 438.122 320.725 438.8 314.233C439.134 311.049 436.678 309.338 434.267 308.788C433.511 308.6 432.737 308.496 431.959 308.477C430.685 308.477 429.534 308.736 427.303 311.992C426.621 312.977 426.255 314.578 425.957 316.002C425.502 318.231 425.084 320.537 424.686 322.768C424.231 325.365 423.749 328.048 423.171 330.698C418.698 351.243 411.311 369.587 401.211 385.204C388.89 404.269 371.444 428.371 345.698 445.684C342.584 447.779 339.453 450.005 336.424 452.177C329.924 456.814 323.206 461.611 316.028 465.488C291.108 478.947 264.904 486.361 238.15 487.528C234.932 487.666 231.585 487.735 227.916 487.735C220.971 487.735 213.93 487.484 207.121 487.241C203.671 487.118 200.103 486.991 196.605 486.9C195.468 486.868 192.016 486.777 190.635 484.064C189.255 481.351 191.185 478.57 191.818 477.653C195.083 472.911 198.302 468.909 201.654 465.415C215.097 451.415 231.539 443.638 250.527 442.3C259.462 441.67 268.534 441.67 277.308 441.668C279.689 441.668 282.149 441.668 284.565 441.655C296.454 441.591 307.145 441.302 317.586 438.384C336.883 432.997 352.061 424.43 363.98 412.199C365.015 411.119 365.818 409.839 366.341 408.437C366.618 407.682 366.612 407.046 366.318 406.55C365.972 405.961 365.206 405.531 364.219 405.376C363.925 405.328 363.628 405.303 363.33 405.301C362.09 405.301 360.924 405.738 358.941 407.91C343.801 424.482 325.496 434.047 304.535 436.337C299.437 436.879 294.314 437.141 289.188 437.122C279.161 437.122 269.132 436.253 259.43 435.414C255.669 435.089 252.203 434.932 248.837 434.932C241.9 434.932 235.694 435.614 229.861 437.008C223.589 438.485 217.589 440.941 212.081 444.286C211.612 444.559 211.114 444.78 210.596 444.945C210.487 444.984 210.382 445.018 210.312 445.048C209.724 445.283 209.079 445.337 208.46 445.204C207.841 445.072 207.276 444.757 206.837 444.301C206.397 443.846 206.104 443.269 205.994 442.646C205.883 442.023 205.962 441.38 206.218 440.802C207.346 438.188 208.858 435.756 210.703 433.588C212.274 431.768 213.914 429.967 215.499 428.232C217.919 425.587 220.423 422.849 222.629 420.045C227.584 413.723 232.863 408.594 238.762 404.369C260.388 388.877 282.586 381.347 306.62 381.347C308.483 381.347 310.382 381.392 312.26 381.486C318.523 381.797 324.177 381.94 329.544 381.94C335.152 381.94 340.328 381.779 345.366 381.445C352.033 381.038 358.591 379.559 364.788 377.065C361.123 377.52 357.434 377.754 353.742 377.763C345.518 377.763 337.904 376.546 330.467 374.042C329.861 373.841 329.33 373.462 328.941 372.955C328.553 372.448 328.327 371.836 328.291 371.199C328.255 370.561 328.412 369.927 328.741 369.38C329.07 368.833 329.556 368.397 330.135 368.129C331.971 367.272 333.774 366.414 335.507 365.584C339.282 363.781 342.851 362.08 346.537 360.499C357.103 355.973 367.111 350.241 376.361 343.418ZM110.551 412.153C110.524 416.793 110.53 421.441 110.537 426.363C110.537 428.637 110.537 430.982 110.537 433.413C110.538 434.089 110.323 434.747 109.924 435.293C109.525 435.839 108.963 436.243 108.319 436.448C107.674 436.653 106.982 436.648 106.341 436.433C105.7 436.218 105.144 435.804 104.754 435.253C103.701 433.763 102.669 432.342 101.67 430.966C99.5483 428.043 97.5447 425.28 95.7003 422.383C86.135 407.332 82.0414 392.506 83.1922 377.058C84.9024 353.883 99.1412 335.189 119.464 329.433C122.954 328.429 126.566 327.912 130.198 327.896C138.158 327.896 145.715 330.484 152.672 335.594C153.731 336.372 154.552 337.316 155.348 338.228C155.703 338.635 156.069 339.056 156.467 339.476C156.822 339.85 157.08 340.304 157.22 340.8C157.361 341.296 157.378 341.818 157.272 342.322C157.166 342.826 156.94 343.297 156.612 343.694C156.284 344.091 155.864 344.403 155.389 344.602C154.377 345.025 153.42 345.417 152.497 345.794C150.677 346.54 148.953 347.243 147.325 347.998C139.097 351.816 132.165 357.156 126.723 363.872C121.565 370.24 117.533 378.09 114.733 387.221C111.966 396.248 110.599 404.405 110.551 412.153ZM131.044 454.274C130.345 454.687 129.515 454.817 128.723 454.638C127.931 454.46 127.238 453.985 126.784 453.312C120.416 443.872 118.479 433.445 117.415 424.491C115.393 407.491 116.876 394.078 122.081 382.279C129.334 365.846 139.54 355.175 153.283 349.663C154.928 349.003 156.549 348.48 158.264 347.927C159.026 347.682 159.815 347.427 160.604 347.161C161.376 346.9 162.219 346.945 162.959 347.287C163.699 347.629 164.28 348.241 164.582 348.998C169.385 361.052 168.22 371.807 161.1 380.969C157.461 385.666 153.279 389.955 149.238 394.105C147.209 396.186 145.112 398.34 143.131 400.496C134.282 410.134 130.025 420.395 130.116 431.864C130.116 433.047 130.116 434.234 130.093 435.382C130.021 440.627 129.952 445.58 132.258 450.08C132.628 450.803 132.709 451.639 132.483 452.418C132.257 453.198 131.743 453.861 131.044 454.274ZM305.535 344.709L304.398 345.881C302.215 348.141 300.218 350.067 297.892 352.298C293.716 356.299 288.986 360.836 284.167 365.12C283.585 365.639 282.943 366.176 282.209 366.765C281.888 367.022 275.902 372.036 275.509 372.155C270.901 373.519 275.509 372.155 270.64 373.687C258.309 377.554 247.17 382.957 237.529 389.709C233.413 392.593 229.342 395.558 225.021 398.697C223.012 400.158 220.935 401.667 218.79 403.223C218.254 403.61 217.612 403.82 216.951 403.826C216.291 403.831 215.645 403.631 215.103 403.253C214.561 402.875 214.15 402.338 213.927 401.716C213.705 401.094 213.681 400.418 213.859 399.782C214.221 398.49 214.567 397.248 214.901 396.043C215.608 393.493 216.266 391.087 216.982 388.688C219.538 380.01 224.487 372.744 229.263 365.718L230.022 364.6C238.491 352.123 247.27 341.878 256.858 333.281C265.737 325.292 275.406 318.227 285.715 312.195C290.348 309.498 294.883 306.321 299.268 303.246C301.191 301.897 303.181 300.503 305.167 299.152C305.653 298.823 306.161 298.438 306.861 297.904C307.282 297.583 307.771 297.221 308.351 296.767C308.859 296.387 309.468 296.168 310.101 296.137C310.735 296.107 311.363 296.266 311.905 296.594C312.447 296.922 312.879 297.405 313.145 297.98C313.412 298.556 313.5 299.197 313.399 299.823C313.268 300.64 313.156 301.363 313.052 302.027C312.851 303.314 312.679 304.426 312.472 305.529C312.151 307.255 311.814 309.004 311.487 310.696C310.868 313.912 310.231 317.216 309.667 320.503C311.118 318.192 312.494 315.829 313.252 313.453C318.598 296.68 332.414 281.73 343.062 272.141C346.019 269.476 349.077 266.842 352.036 264.295C357.039 259.974 362.236 255.51 366.991 250.841C369.322 248.553 369.493 247.243 371.23 244.944C371.676 244.353 372.313 243.936 373.033 243.763C373.752 243.591 374.509 243.675 375.174 244C376.538 244.683 376.234 245.87 375.833 247.343C375.517 248.653 375.127 249.944 374.667 251.21C372.277 258.332 366.689 266.365 362.65 273.51C360.533 277.252 358.267 280.963 356.077 284.55C355.222 285.95 354.338 287.399 353.478 288.823L353.041 289.546C352.168 291.001 351.265 292.502 350.276 293.965C349.901 294.517 349.528 295.075 349.155 295.63C347.479 298.131 345.743 300.703 343.835 303.15C342.032 305.459 340.062 307.621 338.15 309.714C337.674 310.237 337.197 310.76 336.724 311.285C332.767 315.677 328.746 320.073 325.335 323.793C322.605 326.775 320.29 329.277 317.902 331.785C314.243 335.685 310.191 339.904 305.535 344.709ZM322.289 357.474C321.57 357.743 320.778 357.743 320.059 357.473C319.34 357.204 318.742 356.684 318.377 356.008C318.011 355.333 317.901 354.549 318.068 353.799C318.235 353.05 318.667 352.386 319.285 351.93C319.599 351.7 319.892 351.443 320.163 351.164C322.835 348.389 326.303 344.702 329.528 340.766C332.403 337.25 335.166 333.488 337.838 329.85C338.302 329.222 338.765 328.593 339.228 327.962C341.425 324.985 343.606 321.894 345.714 318.908L346.949 317.155L347.001 317.082C347.954 315.736 348.852 314.465 349.632 313.143C352.402 308.454 355.372 303.4 358.313 298.22C360.469 294.422 362.179 291.27 363.66 288.3C366.95 281.741 370.157 275.109 372.586 270.054C373.041 269.087 373.525 268.109 373.987 267.165C375.64 263.772 377.35 260.265 378.747 256.765C381.917 248.824 384.073 240.937 385.153 233.325C385.403 231.567 385.538 229.796 385.679 227.919C385.704 227.61 385.726 227.301 385.751 226.991C385.794 226.419 385.991 225.869 386.322 225.399L386.434 225.24L396.77 208.168C402.485 197.179 405.844 184.093 406.751 169.279C406.751 169.261 406.751 169.242 406.751 169.224C407.127 164.432 407.058 160.45 406.979 156.234C406.949 154.555 406.92 152.823 406.92 151.03C406.92 150.417 407.098 149.817 407.431 149.302C407.764 148.788 408.239 148.38 408.798 148.129L409.23 147.933L409.66 147.74C410.289 147.457 410.992 147.387 411.664 147.538C412.336 147.689 412.941 148.055 413.388 148.579C413.87 149.143 414.368 149.695 414.891 150.282C416.126 151.608 417.282 153.006 418.354 154.467C430.635 171.833 436.923 189.419 437.587 208.229C438.327 229.1 433.849 249.224 424.283 268.041C414.122 288.027 399.301 304.219 387.525 316.095C369.791 334 347.836 347.918 322.289 357.474Z" fill="#246E7F"/>
<path d="M127.638 202.874C126.532 212.009 125.773 221.183 124.85 230.339C124.329 235.49 123.778 240.635 123.208 246.104C122.189 245.99 121.643 246.006 121.145 245.861C112.128 243.241 103.133 240.539 94.0976 237.985C89.2217 236.607 84.3344 235.129 79.3516 234.346C75.0783 233.664 72.3629 235.747 71.0211 239.507C69.4951 243.78 70.3161 246.9 73.9412 249.488C75.429 250.563 77.081 251.389 78.8331 251.935C94.234 256.531 109.621 261.171 125.102 265.535C133.839 267.998 138.715 263.989 139.309 254.858C139.843 246.65 140.774 238.467 141.606 230.28C142.475 221.77 143.507 213.278 144.335 204.763C144.79 200.013 143.005 196.576 139.586 194.918C133.901 192.171 128.518 195.603 127.638 202.874Z" fill="#97B57D"/>
<path d="M277.396 116.035C282.704 120.097 288.74 121.72 295.547 120.217C305.347 118.054 312.701 112.658 316.074 102.822C317.097 99.838 317.043 96.7496 314.607 94.3276C312.126 91.8623 309.013 91.5985 305.845 92.6174C304.025 93.1973 302.329 94.1889 301.167 94.7233C300.814 90.1362 301.037 85.4513 299.966 81.078C298.699 75.9064 295.558 71.6719 290.125 69.8161C286.487 68.5767 283.682 69.9207 283.116 73.7073C282.764 76.0543 283.439 78.5673 283.728 80.9961C284.237 85.2489 285.511 89.5472 285.197 93.7317C284.594 101.757 282.05 109.344 277.396 116.035Z" fill="#97B57D"/>
<path d="M366.337 466.294C359.039 466.45 354.056 470.521 354.375 477.781C354.656 483.316 356.048 488.737 358.468 493.723C363.519 504.052 371.636 510.959 381.402 511.998C393.362 512.126 400.553 505.176 399.786 496.459C398.424 480.953 381.797 465.961 366.337 466.294Z" fill="#97B57D"/>
<path d="M85.1643 466.896C67.5528 462.948 49.2045 478.722 48.9725 498.053C48.8588 507.557 54.1873 512.515 63.9095 511.951C80.3566 510.993 96.0965 492.597 94.318 476.346C93.7245 470.928 90.3859 468.07 85.1643 466.896Z" fill="#97B57D"/>
<path d="M336.424 452.182C339.453 450.019 342.585 447.783 345.698 445.689C371.445 428.375 388.89 404.273 401.212 385.208C411.312 369.587 418.698 351.248 423.172 330.702C423.749 328.053 424.227 325.369 424.686 322.772C425.084 320.541 425.494 318.224 425.958 316.006C425.987 315.863 426.019 315.718 426.051 315.572C426.012 314.435 426.885 311.294 427.481 306.38C427.832 303.503 428.298 299.737 428.846 294.861C429.699 287.267 430.09 283.262 430.41 280.62C429.956 281.447 429.521 282.278 429.062 283.108C424.968 290.533 419.772 298.154 413.199 306.402C412.167 307.699 411.071 309.047 409.943 310.412C407.507 313.352 404.864 316.436 401.626 320.116C394.056 328.758 385.586 336.569 376.361 343.417C367.112 350.245 357.104 355.98 346.537 360.51C342.851 362.102 339.283 363.792 335.508 365.596C333.768 366.426 331.971 367.283 330.136 368.14C329.556 368.408 329.07 368.844 328.741 369.391C328.412 369.939 328.255 370.572 328.291 371.21C328.327 371.847 328.554 372.46 328.942 372.967C329.33 373.474 329.862 373.852 330.468 374.053C337.905 376.555 345.519 377.774 353.742 377.774C357.435 377.761 361.124 377.524 364.788 377.064C358.595 379.553 352.042 381.028 345.38 381.433C340.343 381.768 335.166 381.929 329.558 381.929C324.186 381.929 318.533 381.779 312.274 381.474C310.396 381.381 308.497 381.335 306.634 381.335C282.6 381.335 260.402 388.865 238.776 404.357C232.863 408.583 227.598 413.711 222.643 420.033C220.437 422.849 217.933 425.587 215.513 428.221C213.921 429.956 212.288 431.748 210.717 433.576C208.872 435.745 207.36 438.176 206.232 440.79C205.976 441.369 205.898 442.011 206.008 442.634C206.118 443.258 206.412 443.834 206.851 444.29C207.29 444.746 207.856 445.06 208.475 445.193C209.093 445.326 209.738 445.271 210.326 445.036C210.396 445.007 210.501 444.973 210.61 444.934C211.128 444.769 211.626 444.548 212.095 444.274C217.603 440.93 223.603 438.474 229.875 436.997C235.708 435.598 241.915 434.92 248.851 434.92C252.217 434.92 255.674 435.077 259.444 435.403C269.146 436.242 279.175 437.111 289.202 437.111C294.328 437.13 299.451 436.868 304.549 436.326C325.51 434.038 343.815 424.473 358.955 407.898C360.938 405.726 362.104 405.29 363.344 405.29C363.642 405.291 363.939 405.316 364.233 405.365C365.22 405.519 365.987 405.949 366.332 406.538C366.626 407.034 366.632 407.675 366.355 408.426C365.832 409.827 365.029 411.107 363.994 412.187C352.071 424.418 336.893 432.985 317.6 438.373C307.159 441.291 296.468 441.579 284.579 441.643C282.164 441.657 279.703 441.657 277.322 441.657C268.548 441.657 259.476 441.657 250.541 442.289C231.553 443.626 215.111 451.404 201.668 465.404C198.316 468.897 195.098 472.909 191.832 477.642C191.2 478.551 189.276 481.351 190.649 484.053C192.023 486.754 195.484 486.857 196.619 486.889C200.117 486.979 203.685 487.116 207.135 487.23C213.944 487.473 220.985 487.723 227.93 487.723C231.599 487.723 234.946 487.655 238.164 487.516C264.918 486.35 291.122 478.936 316.043 465.477C323.206 461.615 329.924 456.819 336.424 452.182Z" fill="#71C2D6"/>
<path d="M33.2278 267.491C33.1724 266.862 32.9314 266.264 32.5355 265.773C32.1396 265.282 31.6066 264.919 31.0042 264.731C30.4018 264.543 29.7572 264.539 29.1521 264.718C28.547 264.897 28.0089 265.252 27.6059 265.737C22.4139 271.998 20.3671 278.928 18.3886 285.646C17.986 287.01 17.5698 288.416 17.14 289.771C14.5542 297.915 13.9698 306.63 15.2979 317.198C16.9058 329.968 20.4149 343.013 26.0254 357.084C26.8736 359.208 27.8811 361.239 28.8545 363.203C29.2843 364.068 29.7278 364.964 30.144 365.837C30.4426 366.466 30.9391 366.98 31.5574 367.299C32.1757 367.619 32.8818 367.728 33.5676 367.608C34.2534 367.488 34.8811 367.147 35.3545 366.637C35.8279 366.126 36.121 365.475 36.1888 364.782C37.0326 356.167 38.6109 348.621 41.0102 341.712C43.5239 334.349 47.2167 327.444 51.9446 321.265C52.3825 320.693 52.6137 319.99 52.6005 319.27C52.5872 318.55 52.3304 317.856 51.8718 317.301C46.1681 310.396 41.8789 302.812 38.761 294.104C35.9182 286.185 34.117 277.475 33.2278 267.491Z" fill="#AAFCFE"/>
<path d="M215.115 403.254C215.657 403.633 216.303 403.833 216.964 403.827C217.625 403.821 218.268 403.61 218.804 403.223C220.952 401.67 223.029 400.161 225.035 398.697C229.356 395.558 233.418 392.593 237.543 389.709C247.183 382.957 258.323 377.565 270.653 373.687C275.522 372.155 270.915 373.528 275.522 372.155C275.916 372.036 281.89 367.022 282.222 366.765C282.957 366.176 283.587 365.628 284.18 365.12C288.999 360.836 293.732 356.299 297.905 352.298C300.232 350.067 302.226 348.141 304.412 345.881L305.549 344.709C310.204 339.904 314.257 335.685 317.941 331.812C320.329 329.311 322.64 326.809 325.373 323.821C328.784 320.098 332.805 315.702 336.762 311.312C337.235 310.787 337.713 310.264 338.188 309.741C340.092 307.649 342.055 305.486 343.874 303.178C345.784 300.731 347.513 298.152 349.193 295.657C349.566 295.102 349.939 294.545 350.314 293.992C351.304 292.53 352.207 291.036 353.08 289.573L353.517 288.85C354.376 287.426 355.261 285.978 356.116 284.577C358.306 280.99 360.571 277.279 362.688 273.538C366.727 266.392 372.315 258.36 374.705 251.237C375.166 249.971 375.556 248.68 375.872 247.371C376.272 245.897 376.584 244.698 375.213 244.028C374.548 243.702 373.791 243.618 373.071 243.791C372.352 243.963 371.714 244.38 371.269 244.971C369.538 247.271 369.361 248.581 367.03 250.868C362.275 255.537 357.089 260.004 352.075 264.323C349.118 266.87 346.057 269.503 343.101 272.169C332.453 281.757 318.637 296.708 313.29 313.48C312.533 315.856 311.157 318.219 309.706 320.53C310.266 317.244 310.902 313.935 311.526 310.723C311.853 309.031 312.19 307.283 312.51 305.556C312.717 304.453 312.89 303.341 313.09 302.054C313.195 301.39 313.318 300.667 313.438 299.85C313.539 299.225 313.45 298.583 313.184 298.008C312.918 297.432 312.486 296.95 311.944 296.621C311.401 296.293 310.773 296.134 310.14 296.165C309.507 296.195 308.897 296.415 308.389 296.794C307.8 297.233 307.32 297.599 306.9 297.931C306.199 298.465 305.692 298.841 305.205 299.18C303.22 300.526 301.23 301.909 299.306 303.273C294.921 306.348 290.387 309.525 285.754 312.222C275.445 318.254 265.776 325.32 256.897 333.309C247.306 341.905 238.528 352.151 230.061 364.627L229.301 365.746C224.525 372.773 219.581 380.039 217.021 388.715C216.313 391.115 215.656 393.521 214.94 396.07C214.605 397.275 214.257 398.517 213.898 399.809C213.723 400.439 213.745 401.107 213.963 401.724C214.181 402.34 214.583 402.874 215.115 403.254Z" fill="#5F9453"/>
<path d="M213.896 16.6176C213.323 16.1352 212.598 15.8703 211.849 15.8694C211.72 15.8698 211.591 15.8781 211.463 15.8944C210.555 15.915 209.688 16.2781 209.036 16.911C208.495 17.45 207.951 17.9844 207.41 18.5211C205.795 20.1131 204.128 21.7619 202.536 23.4766C184.911 42.4754 175.551 62.7409 173.92 85.4239C172.783 101.189 176.235 115.728 184.172 128.634C190.958 139.682 199.525 147.849 210.369 153.603C210.854 153.86 211.398 153.988 211.947 153.974C212.496 153.959 213.032 153.803 213.503 153.52C213.974 153.237 214.363 152.837 214.634 152.359C214.905 151.881 215.047 151.341 215.047 150.792C215.047 105.51 215.047 62.7364 215.047 19.0533C215.045 18.5879 214.941 18.1286 214.742 17.7077C214.543 17.2869 214.254 16.9148 213.896 16.6176Z" fill="#D5F798"/>
<path d="M372.586 270.061C370.157 275.112 366.951 281.748 363.66 288.307C362.168 291.277 360.476 294.429 358.313 298.227C355.373 303.408 352.4 308.461 349.632 313.15C348.852 314.472 347.954 315.743 347.001 317.089L346.949 317.162L345.714 318.915C343.606 321.901 341.425 324.992 339.228 327.969C338.764 328.6 338.301 329.229 337.838 329.857C335.166 333.495 332.403 337.25 329.528 340.773C326.313 344.71 322.835 348.396 320.163 351.171C319.893 351.45 319.599 351.707 319.285 351.937C318.668 352.393 318.235 353.057 318.068 353.806C317.901 354.556 318.011 355.34 318.377 356.015C318.743 356.691 319.34 357.211 320.059 357.48C320.778 357.75 321.57 357.75 322.29 357.482C347.836 347.93 369.787 334.007 387.537 316.109C399.313 304.233 414.145 288.041 424.295 268.055C433.86 249.238 438.338 229.114 437.599 208.243C436.935 189.433 430.642 171.856 418.366 154.481C417.294 153.02 416.137 151.622 414.902 150.296C414.379 149.709 413.881 149.159 413.399 148.593C412.952 148.068 412.347 147.703 411.675 147.552C411.003 147.401 410.3 147.471 409.672 147.754L409.242 147.947L408.81 148.142C408.25 148.394 407.776 148.801 407.442 149.316C407.109 149.831 406.932 150.431 406.931 151.044C406.931 152.836 406.961 154.569 406.99 156.248C407.063 160.464 407.131 164.435 406.763 169.238C406.763 169.256 406.763 169.274 406.763 169.293C405.853 184.111 402.497 197.197 396.781 208.182L386.445 225.254L386.334 225.413C386.003 225.882 385.805 226.433 385.763 227.005C385.738 227.315 385.715 227.624 385.69 227.933C385.549 229.809 385.415 231.572 385.165 233.339C384.084 240.951 381.929 248.838 378.758 256.779C377.362 260.279 375.652 263.786 373.998 267.179C373.525 268.116 373.05 269.094 372.586 270.061Z" fill="#D5F798"/>
<path d="M147.323 347.993C148.951 347.238 150.673 346.536 152.494 345.79C153.418 345.412 154.375 345.021 155.387 344.598C155.862 344.399 156.282 344.088 156.611 343.691C156.939 343.294 157.166 342.823 157.273 342.319C157.379 341.815 157.362 341.292 157.222 340.796C157.082 340.301 156.824 339.846 156.47 339.472C156.072 339.051 155.705 338.63 155.351 338.223C154.555 337.314 153.734 336.368 152.674 335.59C145.717 330.48 138.155 327.892 130.2 327.892C126.568 327.907 122.956 328.425 119.466 329.429C99.1434 335.185 84.8978 353.879 83.1944 377.053C82.0573 392.502 86.1509 407.328 95.7026 422.378C97.5469 425.278 99.5505 428.039 101.672 430.961C102.671 432.326 103.703 433.759 104.756 435.248C105.05 435.664 105.44 436.003 105.892 436.238C106.344 436.472 106.846 436.594 107.356 436.594C108.2 436.594 109.01 436.259 109.607 435.662C110.204 435.065 110.54 434.255 110.54 433.411C110.54 430.984 110.54 428.635 110.54 426.361C110.54 421.439 110.526 416.791 110.553 412.151C110.601 404.403 111.968 396.245 114.733 387.214C117.533 378.083 121.556 370.228 126.723 363.865C132.163 357.152 139.095 351.821 147.323 347.993Z" fill="#AAFCFE"/>
<path d="M130.089 435.382C130.105 434.245 130.121 433.047 130.112 431.864C130.021 420.395 134.278 410.134 143.127 400.496C145.108 398.34 147.205 396.175 149.233 394.105C153.274 389.955 157.452 385.666 161.096 380.969C168.209 371.807 169.38 361.05 164.577 348.998C164.276 348.241 163.695 347.629 162.955 347.287C162.215 346.945 161.372 346.9 160.6 347.161C159.811 347.427 159.021 347.682 158.26 347.927C156.545 348.48 154.923 349.003 153.279 349.663C139.536 355.175 129.329 365.846 122.077 382.279C116.871 394.078 115.388 407.491 117.41 424.491C118.474 433.445 120.421 443.872 126.78 453.312C127.233 453.986 127.927 454.461 128.719 454.64C129.511 454.82 130.341 454.69 131.04 454.277C131.74 453.864 132.255 453.2 132.48 452.42C132.706 451.64 132.625 450.803 132.254 450.08C129.952 445.58 130.021 440.627 130.089 435.382Z" fill="#71C2D6"/>
<path d="M353.14 106.19C352.587 103.993 352.022 101.755 351.446 99.4762C351.294 98.8731 350.97 98.3275 350.512 97.9068C350.054 97.486 349.483 97.2086 348.869 97.1087C348.703 97.0835 348.536 97.0706 348.369 97.0701C347.832 97.0702 347.303 97.2063 346.833 97.4655C346.362 97.7248 345.965 98.0988 345.678 98.5529C345.494 98.844 345.353 99.0532 345.239 99.2237C344.947 99.6227 344.709 100.06 344.534 100.522C344.239 101.343 343.904 102.273 343.647 103.251C340.463 115.521 333.796 125.4 323.862 132.614C318.062 136.819 311.933 140.837 306.009 144.724C300.176 148.549 294.147 152.504 288.37 156.67C283.1 160.479 278.491 165.129 274.73 170.434C269.58 177.727 265.901 185.955 263.9 194.657C263.256 197.452 262.719 200.288 262.201 203.028C261.974 204.249 261.732 205.514 261.489 206.746C261.351 207.447 261.453 208.173 261.777 208.808C262.101 209.444 262.63 209.952 263.278 210.252C263.926 210.551 264.655 210.624 265.35 210.459C266.044 210.294 266.663 209.9 267.106 209.341C271.988 203.154 277.833 197.791 284.415 193.458C295.625 186.112 308.397 183.936 321.592 182.189C331.951 180.825 340.056 178.551 347.093 175.082C349.183 174.052 351.678 171.821 352.551 169.169C357.224 154.894 361.368 137.883 356.663 119.953C355.464 115.432 354.327 110.943 353.14 106.19Z" fill="#D5F798"/>
<path d="M341.709 183.968C341.294 183.969 340.882 184.05 340.497 184.207C338.389 184.525 336.253 184.853 334.182 185.169C328.969 185.965 323.579 186.788 318.262 187.539L317.757 187.611C307.958 188.992 297.828 190.422 288.875 196.192C268.634 209.219 258.198 229.302 257.839 255.886C257.823 256.991 258.093 257.946 258.353 258.867C258.462 259.254 258.58 259.652 258.671 260.079C258.787 260.592 259.029 261.067 259.374 261.464C259.719 261.86 260.157 262.165 260.649 262.351C261.141 262.537 261.671 262.599 262.192 262.53C262.713 262.461 263.209 262.265 263.636 261.958C264.645 261.232 265.61 260.539 266.547 259.87C268.516 258.458 270.379 257.125 272.216 255.776C273.926 254.519 275.612 253.197 277.242 251.91C280.713 249.181 283.99 246.618 287.569 244.551C297.63 238.74 307.31 231.629 318.028 222.17C326.199 214.961 332.294 206.185 338.189 197.7C340.154 194.871 342.185 191.948 344.247 189.151C344.609 188.661 344.829 188.081 344.884 187.474C344.938 186.867 344.825 186.257 344.557 185.71C344.29 185.185 343.882 184.744 343.38 184.436C342.877 184.128 342.299 183.966 341.709 183.968Z" fill="#5F9453"/>
<path d="M242.26 127.749C248.078 119.583 251.548 109.913 253.177 97.3159C254.593 86.3996 254.029 75.1582 251.498 63.8986C249.542 55.1997 245.503 46.5509 239.149 37.4608C237.073 34.4884 235.022 31.5297 232.85 28.3981L229.77 23.9611C229.383 23.4038 228.829 22.9846 228.187 22.7648C227.545 22.5449 226.849 22.5359 226.202 22.739C225.555 22.9421 224.989 23.3467 224.588 23.8938C224.186 24.441 223.97 25.102 223.971 25.7805V137.817C223.971 138.439 224.153 139.046 224.494 139.566C224.835 140.085 225.32 140.493 225.891 140.74L226.627 141.058L227.364 141.376C227.979 141.642 228.661 141.706 229.314 141.562C229.967 141.417 230.558 141.071 231.003 140.571C232.14 139.307 233.325 138.033 234.483 136.803C237.159 133.972 239.92 131.036 242.26 127.749Z" fill="#5F9453"/>
<path d="M134.467 127.89C131.636 118.339 130.637 108.187 131.511 97.7457C131.553 97.2361 131.471 96.7239 131.273 96.2524C131.075 95.7809 130.767 95.3639 130.374 95.0369C129.981 94.7099 129.515 94.4823 129.015 94.3735C128.515 94.2647 127.997 94.2778 127.503 94.4117L126.55 94.6664C125.868 94.8484 125.231 95.0189 124.576 95.2077C114.397 98.1187 105.823 104.273 98.2502 109.701C78.8943 123.59 63.8345 137.92 52.2178 153.509C44.6083 163.721 36.7713 174.723 31.8818 187.095C27.2333 198.857 23.6696 211.202 20.2264 223.125C19.1394 226.891 18.0159 230.783 16.8765 234.59C13.8313 244.767 12.7215 253.491 13.3856 262.039C13.4378 262.739 13.7198 263.402 14.1875 263.925C14.6553 264.448 15.2827 264.802 15.9723 264.931C16.6618 265.061 17.3749 264.959 18.0007 264.642C18.6265 264.325 19.1299 263.809 19.4327 263.177C19.9444 262.105 20.4516 261.018 20.9405 259.965C21.9912 257.705 23.0783 255.367 24.2518 253.175C25.5936 250.673 27.0605 248.133 28.4796 245.683C31.2086 240.969 34.0309 236.095 36.2369 230.953C39.3426 223.687 43.0711 216.704 47.3806 210.081C51.6913 203.485 56.596 197.298 62.0333 191.596C71.9216 181.228 82.8651 173.325 94.5546 168.101C106.537 162.75 119.719 160.032 133.732 160.025H145.611C146.199 160.025 146.776 159.862 147.278 159.553C147.779 159.245 148.185 158.804 148.451 158.279C148.717 157.754 148.832 157.165 148.783 156.578C148.735 155.992 148.525 155.43 148.176 154.956C141.845 146.334 137.232 137.231 134.467 127.89Z" fill="#D5F798"/>
</svg>
