<svg width="449" height="512" viewBox="0 0 449 512" fill="none" xmlns="http://www.w3.org/2000/svg">
<path d="M52.8112 413.247C54.3872 412.231 55.2855 411.069 55.5562 409.695C55.8609 408.158 55.4516 406.19 54.3395 403.855C54.037 403.218 53.7141 402.563 53.4025 401.929C52.2972 399.682 51.1556 397.36 50.3573 394.844C44.7764 377.251 46.3479 359.069 55.0308 340.802C57.2209 336.199 60.4889 332.231 63.6433 328.394C64.2278 327.685 64.8304 326.95 65.4103 326.234C67.4162 323.748 68.2895 322.181 68.3259 321.003C68.3623 319.825 67.5572 318.294 65.7128 315.972C65.4285 315.618 65.1647 315.265 64.91 314.924C64.5302 314.419 64.1732 313.942 63.8093 313.528C51.5285 299.534 45.3768 282.314 45.0198 260.884C44.6832 240.644 51.4171 221.888 65.0328 205.145C82.5124 183.663 105.684 172.77 133.907 172.77H134.612C154.757 172.899 173.076 179.445 189.064 192.221C214.826 212.81 225.181 240.871 219.845 275.623C218.749 282.751 216.661 289.737 214.658 296.492C213.785 299.421 212.882 302.452 212.083 305.422C211.285 308.392 212.065 311.499 213.916 312.598C214.365 312.884 214.883 313.042 215.415 313.052C216.586 313.052 218.167 312.163 219.982 310.482C221.314 309.25 222.656 307.933 223.955 306.66C227.082 303.587 230.323 300.41 234.018 297.79C251.53 285.409 269.473 273.026 286.823 261.052C291.656 257.716 296.652 254.266 301.565 250.871C314.473 241.945 325.821 231.767 335.293 220.594C345.101 209.013 353.199 196.087 359.343 182.21C364.206 171.264 367.303 160.059 368.549 148.902C369.807 137.651 369.232 126.062 366.825 114.452C363.936 100.485 358.982 87.0267 352.127 74.5192C349.884 70.3828 347.19 66.5081 344.092 62.9662C343.476 62.268 342.371 61.8677 341.059 61.8677C339.857 61.8625 338.676 62.1882 337.647 62.8092C335.28 64.3102 334.136 66.5731 334.736 68.5766C337.122 76.5364 337.722 84.8555 336.578 93.9864C334.532 110.249 327.109 122.71 314.505 131.015C308.085 135.247 301.158 138.775 294.455 142.186L292.666 143.096C284.999 147.007 278.272 151.808 272.673 157.367C266.857 163.166 262.065 169.91 258.502 177.311C253.298 188.018 250.593 199.767 250.59 211.672C250.559 221.431 250.554 231.356 250.549 240.953C250.549 249.722 250.549 258.79 250.518 267.711C250.518 269.36 250.518 272.123 248.455 273.572C245.53 275.642 242.458 277.566 239.488 279.428C238.478 280.06 237.441 280.715 236.406 281.368C235.999 281.626 235.539 281.789 235.06 281.844C234.581 281.898 234.096 281.844 233.642 281.684C233.187 281.523 232.775 281.262 232.436 280.92C232.097 280.577 231.84 280.162 231.685 279.706C231.621 279.519 231.569 279.387 231.521 279.251C231.301 278.742 231.182 278.195 231.171 277.641V272.537C231.15 235.126 231.128 196.442 231.194 158.392C231.194 156.691 232.046 154.915 233.713 153.111C235.515 151.167 237.405 149.273 239.233 147.444C242.858 143.805 246.283 140.394 249.137 136.514C256.467 126.574 261.125 114.477 262.983 100.561C263.855 94.1775 264.126 87.7262 263.794 81.2918C263.448 74.8629 262.398 68.4913 260.665 62.2907C258.041 52.9664 253.977 43.8696 248.241 34.5453C244.057 27.7227 240.35 22.3464 236.572 17.6161C232.024 11.9078 227.389 7.20244 222.429 3.22938C219.438 0.846008 217.885 0 216.48 0C215.031 0 213.068 0.909686 210.339 2.88598L209.914 3.1839C209.375 3.54275 208.863 3.94026 208.381 4.37331C197.563 14.8756 189.114 25.0937 182.551 35.6119C175.093 47.5606 170.133 59.755 167.382 72.8863C165.891 79.9687 165.216 87.1985 165.369 94.4344C165.546 101.636 166.527 108.795 168.296 115.778C172.335 131.836 181.821 145.959 197.294 158.952C200.114 161.317 203.066 163.657 205.936 165.918C208.931 168.292 212.031 170.746 215.022 173.266C217.219 175.119 220.227 177.657 220.632 180.998C221.114 184.98 221.03 188.88 220.939 193.01C220.905 194.602 220.869 196.256 220.869 197.907C220.868 198.501 220.702 199.084 220.387 199.589C220.072 200.094 219.623 200.501 219.089 200.763C218.555 201.025 217.958 201.133 217.367 201.073C216.775 201.014 216.211 200.79 215.74 200.426C215.513 200.249 215.286 200.097 215.081 199.951C214.44 199.548 213.87 199.041 213.393 198.452C205.568 188.191 195.291 180.695 185.434 173.891C176.337 167.616 167.588 161.285 160.534 152.823C148.849 138.809 142.85 122.878 142.704 105.476C142.668 101.275 143.42 97.1567 144.148 93.1745C144.623 90.5751 145.072 88.1167 145.317 85.6469C145.442 84.3893 145.82 80.5663 144.755 78.3057C143.332 75.281 141.344 73.8096 138.672 73.8096C137.05 73.8096 135.208 74.3395 133.193 75.3856C131.356 76.3408 129.482 77.3051 127.669 78.2375C117.999 83.2089 107.997 88.3532 98.955 94.4208C84.9764 103.806 72.0997 114.735 60.5685 127.003C49.2884 139.009 39.0704 152.561 30.201 167.282C21.0427 182.483 13.8107 199.783 8.08653 220.173C4.07304 234.429 1.54431 249.062 0.540694 263.838C-0.180231 274.68 -0.180231 284.418 0.540694 293.606C1.57319 306.769 3.16286 318.622 5.39841 329.85C7.58121 340.676 10.712 351.289 14.7545 361.566C18.8245 371.872 23.6333 381.87 29.1435 391.483C33.3644 398.89 38.213 405.742 42.4021 411.471C43.9668 413.611 45.9726 414.742 48.2014 414.742C49.7024 414.746 51.2966 414.228 52.8112 413.247ZM261.484 206.749C261.727 205.516 261.966 204.247 262.196 203.03C262.714 200.301 263.251 197.454 263.895 194.659C265.897 185.957 269.577 177.728 274.729 170.434C278.486 165.139 283.088 160.497 288.349 156.693C294.126 152.527 300.155 148.572 305.988 144.747C311.901 140.86 318.041 136.842 323.841 132.637C333.786 125.423 340.442 115.544 343.626 103.274C343.883 102.287 344.217 101.357 344.513 100.545C344.688 100.082 344.925 99.6456 345.218 99.2467C345.332 99.0761 345.473 98.8669 345.657 98.5758C345.944 98.1218 346.341 97.7477 346.812 97.4885C347.282 97.2292 347.81 97.0932 348.347 97.093C348.515 97.0935 348.682 97.1065 348.848 97.1317C349.463 97.2296 350.035 97.5056 350.495 97.9256C350.954 98.3456 351.281 98.891 351.434 99.4946C352.014 101.778 352.579 104.016 353.128 106.208C354.324 110.961 355.454 115.45 356.642 119.969C361.347 137.899 357.203 154.91 352.53 169.186C351.661 171.84 349.166 174.071 347.072 175.099C340.035 178.576 331.93 180.834 321.571 182.205C308.38 183.952 295.604 186.128 284.394 193.474C277.811 197.808 271.967 203.17 267.085 209.357C266.641 209.916 266.023 210.31 265.328 210.475C264.634 210.64 263.905 210.567 263.257 210.268C262.609 209.968 262.08 209.46 261.756 208.824C261.432 208.189 261.33 207.463 261.468 206.762L261.484 206.749ZM288.87 196.194C297.833 190.424 307.973 188.994 317.753 187.614L318.257 187.541C323.57 186.79 328.96 185.967 334.177 185.171C336.249 184.855 338.384 184.527 340.492 184.209C340.877 184.052 341.289 183.971 341.704 183.97C342.294 183.97 342.871 184.134 343.373 184.442C343.875 184.751 344.282 185.193 344.547 185.719C344.816 186.266 344.929 186.876 344.875 187.483C344.82 188.09 344.6 188.67 344.238 189.16C342.175 191.957 340.144 194.88 338.179 197.709C332.285 206.194 326.19 214.97 318.019 222.179C307.3 231.638 297.621 238.749 287.56 244.56C283.98 246.627 280.703 249.199 277.233 251.919C275.602 253.197 273.917 254.519 272.207 255.785C270.369 257.136 268.507 258.469 266.537 259.879C265.6 260.548 264.636 261.243 263.626 261.967C263.2 262.274 262.704 262.47 262.182 262.539C261.661 262.608 261.131 262.546 260.64 262.36C260.148 262.174 259.71 261.869 259.365 261.473C259.02 261.077 258.778 260.601 258.662 260.088C258.564 259.661 258.452 259.263 258.343 258.876C258.084 257.966 257.813 257 257.829 255.895C258.193 229.302 268.634 209.228 288.87 196.192V196.194ZM223.978 25.7759C223.977 25.0974 224.193 24.4364 224.594 23.8893C224.995 23.3422 225.561 22.9376 226.208 22.7345C226.856 22.5314 227.551 22.5404 228.193 22.7602C228.835 22.9801 229.39 23.3992 229.777 23.9566L232.856 28.3936C235.028 31.5252 237.079 34.4839 239.156 37.4563C245.51 46.5532 249.549 55.1952 251.505 63.894C254.036 75.1537 254.6 86.3951 253.183 97.3113C251.548 109.908 248.077 119.578 242.267 127.745C239.927 131.031 237.166 133.967 234.498 136.808C233.34 138.038 232.144 139.309 231.019 140.576C230.574 141.075 229.982 141.422 229.329 141.567C228.676 141.711 227.994 141.646 227.38 141.381L226.643 141.063L225.906 140.744C225.334 140.499 224.846 140.09 224.503 139.57C224.16 139.05 223.977 138.44 223.978 137.817V25.7759ZM213.493 153.521C213.023 153.804 212.486 153.96 211.937 153.974C211.388 153.989 210.845 153.861 210.36 153.603C199.525 147.849 190.958 139.682 184.17 128.639C176.233 115.728 172.783 101.189 173.918 85.4286C175.548 62.7456 184.909 42.48 202.534 23.4813C204.126 21.7665 205.793 20.12 207.408 18.5257C207.949 17.989 208.492 17.4546 209.034 16.9156C209.685 16.2827 210.552 15.9196 211.46 15.899C211.589 15.8828 211.718 15.8744 211.847 15.874C212.691 15.874 213.501 16.2095 214.098 16.8066C214.695 17.4037 215.031 18.2135 215.031 19.0579C215.031 62.741 215.031 105.514 215.031 150.796C215.031 151.344 214.889 151.883 214.62 152.36C214.351 152.838 213.963 153.237 213.493 153.521ZM13.3854 262.037C12.7214 253.488 13.8403 244.753 16.8764 234.587C18.0135 230.78 19.1506 226.889 20.2263 223.123C23.6694 211.193 27.2331 198.855 31.8816 187.093C36.7712 174.721 44.6172 163.718 52.2176 153.507C63.8343 137.92 78.8942 123.59 98.25 109.701C105.819 104.273 114.397 98.1187 124.563 95.2077C125.218 95.0189 125.859 94.8484 126.537 94.6664L127.49 94.4117C127.983 94.2778 128.502 94.2647 129.001 94.3735C129.501 94.4823 129.967 94.7099 130.36 95.0369C130.753 95.364 131.062 95.7809 131.259 96.2524C131.457 96.7239 131.539 97.2361 131.497 97.7457C130.633 108.187 131.631 118.33 134.453 127.89C137.219 137.231 141.831 146.334 148.158 154.954C148.506 155.428 148.716 155.99 148.765 156.576C148.814 157.163 148.699 157.751 148.433 158.277C148.167 158.802 147.761 159.243 147.259 159.551C146.758 159.859 146.181 160.023 145.592 160.023H133.728C119.714 160.023 106.533 162.752 94.5498 168.099C82.8558 173.329 71.9123 181.225 62.0286 191.593C56.5913 197.296 51.6866 203.483 47.3758 210.078C43.0664 216.701 39.3379 223.685 36.2322 230.951C34.0262 236.093 31.2039 240.958 28.4749 245.681C27.0557 248.13 25.5889 250.664 24.2471 253.172C23.0736 255.365 21.9865 257.703 20.9358 259.963C20.4469 261.016 19.9397 262.103 19.428 263.174C19.1252 263.807 18.6218 264.322 17.996 264.64C17.3702 264.957 16.6571 265.059 15.9676 264.929C15.278 264.799 14.6506 264.446 14.1828 263.923C13.7151 263.4 13.4331 262.737 13.3809 262.037H13.3854ZM41.0103 341.712C38.611 348.621 37.0327 356.167 36.189 364.782C36.1211 365.474 35.828 366.126 35.3546 366.636C34.8812 367.147 34.2536 367.488 33.5678 367.608C32.882 367.727 32.1759 367.619 31.5575 367.299C30.9392 366.979 30.4427 366.466 30.1441 365.837C29.7279 364.964 29.2845 364.068 28.8546 363.203C27.8813 361.238 26.8738 359.208 26.0255 357.083C20.415 343.013 16.9059 329.968 15.2981 317.198C13.9699 306.63 14.5544 297.915 17.1402 289.771C17.57 288.407 17.9862 287.008 18.3887 285.646C20.3673 278.937 22.4141 272.001 27.6061 265.737C28.009 265.252 28.5472 264.897 29.1523 264.718C29.7573 264.538 30.402 264.543 31.0044 264.731C31.6068 264.919 32.1398 265.281 32.5357 265.773C32.9316 266.264 33.1725 266.862 33.228 267.491C34.1081 277.475 35.9184 286.185 38.7611 294.113C41.8791 302.812 46.1682 310.396 51.872 317.31C52.3305 317.865 52.5874 318.559 52.6006 319.279C52.6138 319.999 52.3826 320.702 51.9447 321.274C47.2178 327.45 43.5249 334.352 41.0103 341.712Z" fill="#57684B"/>
<path d="M376.363 343.418C385.59 336.57 394.06 328.758 401.632 320.116C404.87 316.436 407.513 313.352 409.949 310.412C411.086 309.047 412.173 307.699 413.205 306.402C419.778 298.154 424.967 290.533 429.068 283.108C440.102 263.126 446.391 243.787 448.294 223.978C449.686 209.3 448.237 194.491 444.028 180.361C439.995 166.672 433.98 154.917 426.15 145.42C419.985 137.94 412.789 131.156 405.341 124.288C404.716 123.71 402.962 123.114 401.111 123.114C400.73 123.112 400.35 123.142 399.974 123.205C397.529 123.64 395.833 124.606 394.927 126.08C393.563 128.281 394.084 131.37 394.748 133.571C398.682 146.6 399.053 160.941 395.885 177.414C393.988 187.261 390.17 197.361 383.868 209.198C373.386 228.884 358.624 246.086 339.989 260.329C331.645 266.697 322.771 272.587 314.186 278.273C310.97 280.406 307.643 282.61 304.407 284.804C298.576 288.748 292.629 292.721 286.88 296.564C280.057 301.113 273.007 305.829 266.125 310.514C256.605 316.984 248.493 323.477 241.322 330.332C233.333 337.978 226.699 345.91 221.043 354.579C215.236 363.475 210.503 373.028 206.943 383.037C203.424 393.054 201.009 403.425 199.738 413.966C199.411 416.618 199.111 419.331 198.829 421.953C198.147 428.148 197.432 434.554 196.304 440.829C194.772 449.38 191.708 456.671 186.944 463.116C186.648 463.517 186.262 463.843 185.817 464.067C185.372 464.291 184.881 464.408 184.383 464.408H184.287C183.773 464.393 183.27 464.253 182.822 464C182.374 463.748 181.993 463.391 181.713 462.959C174.301 451.538 173.526 442.428 178.92 430.465L179.084 430.106C179.994 428.103 180.844 426.213 181.399 424.291C181.582 423.708 181.628 423.09 181.533 422.486C181.438 421.882 181.204 421.308 180.851 420.809C180.464 420.284 179.963 419.855 179.385 419.553C178.808 419.251 178.169 419.085 177.517 419.067C177.385 419.067 177.253 419.067 177.124 419.067C175.118 419.067 173.417 419.831 171.77 421.473C167.904 425.317 165.703 430.365 164.818 437.361C164.024 443.638 164.475 449.628 166.157 455.168C167.84 460.708 170.774 465.904 174.906 470.687C177.51 473.705 177.554 477.071 175.025 479.693C173.446 481.328 170.954 481.456 170.228 481.456C169.273 481.478 168.328 481.268 167.472 480.844C166.969 480.58 166.46 480.318 165.953 480.057C162.41 478.238 158.746 476.341 155.616 473.632C145.61 464.99 139.752 451.682 139.924 438.052C140.093 424.862 145.744 413.036 155.844 404.765C159.053 402.129 162.405 398.938 166.396 394.719C173.574 387.137 178.022 376.937 178.925 366.005C179.828 355.073 177.105 344.289 171.261 335.656C166.753 328.999 160.89 323.873 153.838 320.418C147.211 317.175 139.833 315.529 131.91 315.529C124.577 315.57 117.312 316.945 110.471 319.586C104.118 322.007 98.2946 325.637 93.3235 330.275C88.6045 334.639 84.4404 339.934 80.5879 346.46C72.5281 360.138 70.0787 375.434 73.0989 393.227C73.8562 397.678 75.2435 402.004 76.7126 406.584C77.4722 408.945 78.2545 411.385 78.9391 413.834C82.5664 426.815 89.7575 438.998 100.922 451.079C107.736 458.432 115.292 465.063 123.468 470.865C131.67 476.657 140.387 481.681 149.51 485.874C168.652 494.728 189.273 499.94 210.796 501.366C214.562 501.616 218.419 501.742 222.253 501.742C234.739 501.742 247.884 500.393 261.32 497.73C276.978 494.628 291.969 490.07 305.878 484.187C320.189 478.136 333.779 470.506 346.396 461.438C360.198 451.502 372.87 440.081 384.182 427.382C395.203 415.003 405.205 401.087 413.908 386.016C418.716 377.713 422.948 369.089 426.573 360.206C430.177 351.335 433.107 342.206 435.338 332.895C436.668 327.309 438.124 320.725 438.801 314.233C439.136 311.049 436.68 309.338 434.269 308.788C433.513 308.6 432.739 308.496 431.961 308.477C430.687 308.477 429.536 308.736 427.305 311.992C426.623 312.977 426.257 314.578 425.959 316.002C425.504 318.231 425.086 320.537 424.688 322.768C424.233 325.365 423.751 328.048 423.173 330.698C418.7 351.243 411.313 369.587 401.213 385.204C388.892 404.269 371.446 428.371 345.7 445.684C342.586 447.779 339.455 450.005 336.426 452.177C329.926 456.814 323.208 461.611 316.03 465.488C291.11 478.947 264.906 486.361 238.152 487.528C234.934 487.666 231.587 487.735 227.918 487.735C220.973 487.735 213.932 487.484 207.123 487.241C203.673 487.118 200.105 486.991 196.607 486.9C195.47 486.868 192.018 486.777 190.637 484.064C189.257 481.351 191.187 478.57 191.82 477.653C195.085 472.911 198.303 468.909 201.656 465.416C215.098 451.415 231.541 443.638 250.528 442.3C259.464 441.67 268.536 441.67 277.31 441.668C279.691 441.668 282.151 441.668 284.567 441.655C296.456 441.591 307.147 441.302 317.588 438.384C336.885 432.997 352.063 424.43 363.982 412.199C365.017 411.119 365.82 409.839 366.343 408.437C366.62 407.682 366.613 407.046 366.32 406.55C365.974 405.961 365.208 405.531 364.221 405.376C363.927 405.328 363.63 405.303 363.332 405.301C362.092 405.301 360.926 405.738 358.943 407.91C343.803 424.482 325.498 434.047 304.536 436.337C299.439 436.879 294.316 437.141 289.19 437.122C279.163 437.122 269.134 436.253 259.432 435.414C255.67 435.089 252.205 434.932 248.839 434.932C241.902 434.932 235.696 435.614 229.863 437.008C223.591 438.485 217.591 440.941 212.083 444.286C211.614 444.559 211.116 444.781 210.598 444.945C210.489 444.984 210.384 445.018 210.314 445.048C209.726 445.283 209.081 445.337 208.462 445.204C207.843 445.072 207.278 444.757 206.839 444.301C206.399 443.846 206.106 443.269 205.996 442.646C205.885 442.023 205.964 441.38 206.22 440.802C207.348 438.188 208.859 435.756 210.705 433.588C212.276 431.769 213.916 429.967 215.501 428.232C217.921 425.587 220.425 422.849 222.631 420.045C227.586 413.723 232.865 408.594 238.764 404.369C260.389 388.877 282.588 381.347 306.622 381.347C308.485 381.347 310.383 381.392 312.262 381.486C318.525 381.797 324.179 381.94 329.546 381.94C335.154 381.94 340.33 381.779 345.368 381.445C352.035 381.038 358.593 379.559 364.789 377.065C361.125 377.52 357.436 377.754 353.744 377.763C345.52 377.763 337.906 376.546 330.469 374.042C329.863 373.841 329.331 373.462 328.943 372.955C328.555 372.448 328.328 371.836 328.293 371.199C328.257 370.561 328.414 369.927 328.743 369.38C329.072 368.833 329.557 368.397 330.137 368.129C331.973 367.272 333.776 366.414 335.509 365.584C339.284 363.781 342.852 362.08 346.539 360.499C357.105 355.973 367.112 350.241 376.363 343.418ZM110.553 412.153C110.526 416.793 110.532 421.441 110.539 426.363C110.539 428.637 110.539 430.982 110.539 433.413C110.54 434.089 110.325 434.747 109.926 435.293C109.527 435.839 108.965 436.243 108.321 436.448C107.676 436.653 106.984 436.648 106.343 436.433C105.702 436.218 105.146 435.804 104.756 435.253C103.703 433.763 102.67 432.342 101.672 430.966C99.5503 428.043 97.5467 425.28 95.7023 422.383C86.1369 407.332 82.0434 392.507 83.1941 377.058C84.9043 353.884 99.1432 335.189 119.466 329.433C122.956 328.429 126.568 327.912 130.2 327.896C138.16 327.896 145.717 330.484 152.674 335.594C153.733 336.372 154.554 337.316 155.35 338.228C155.705 338.635 156.071 339.056 156.469 339.476C156.824 339.85 157.082 340.304 157.222 340.8C157.363 341.296 157.38 341.818 157.274 342.322C157.168 342.826 156.942 343.297 156.614 343.694C156.286 344.091 155.866 344.403 155.391 344.602C154.379 345.025 153.422 345.417 152.499 345.794C150.679 346.54 148.955 347.243 147.327 347.998C139.099 351.816 132.167 357.156 126.725 363.872C121.567 370.24 117.535 378.09 114.735 387.221C111.967 396.248 110.601 404.405 110.553 412.153ZM131.046 454.274C130.347 454.687 129.517 454.817 128.725 454.638C127.933 454.46 127.24 453.985 126.786 453.312C120.418 443.872 118.481 433.445 117.416 424.491C115.395 407.491 116.877 394.078 122.083 382.279C129.336 365.846 139.542 355.175 153.285 349.663C154.93 349.003 156.551 348.48 158.266 347.927C159.028 347.682 159.817 347.427 160.606 347.161C161.378 346.9 162.221 346.945 162.961 347.287C163.701 347.629 164.282 348.241 164.584 348.999C169.387 361.052 168.222 371.807 161.102 380.969C157.463 385.666 153.281 389.955 149.24 394.105C147.211 396.186 145.114 398.34 143.133 400.496C134.284 410.134 130.027 420.395 130.118 431.864C130.118 433.047 130.118 434.234 130.095 435.382C130.022 440.627 129.954 445.58 132.26 450.081C132.63 450.803 132.711 451.639 132.485 452.418C132.259 453.198 131.745 453.862 131.046 454.274ZM305.537 344.709L304.4 345.881C302.217 348.141 300.22 350.067 297.894 352.298C293.718 356.299 288.988 360.836 284.169 365.12C283.586 365.639 282.945 366.176 282.211 366.765C281.89 367.022 275.904 372.036 275.511 372.155C270.903 373.519 275.511 372.155 270.642 373.687C258.311 377.554 247.172 382.957 237.531 389.709C233.415 392.593 229.344 395.559 225.023 398.697C223.014 400.158 220.937 401.667 218.792 403.223C218.256 403.61 217.614 403.82 216.953 403.826C216.292 403.831 215.646 403.631 215.105 403.253C214.563 402.875 214.152 402.338 213.929 401.716C213.707 401.094 213.683 400.418 213.861 399.782C214.223 398.49 214.569 397.248 214.903 396.043C215.61 393.493 216.267 391.087 216.984 388.688C219.54 380.01 224.489 372.744 229.265 365.719L230.024 364.6C238.493 352.123 247.272 341.878 256.86 333.281C265.739 325.292 275.408 318.227 285.717 312.195C290.35 309.498 294.885 306.321 299.269 303.246C301.193 301.897 303.183 300.503 305.169 299.152C305.655 298.823 306.163 298.438 306.863 297.904C307.284 297.583 307.773 297.221 308.353 296.767C308.861 296.387 309.47 296.168 310.103 296.137C310.737 296.107 311.364 296.266 311.907 296.594C312.449 296.922 312.881 297.405 313.147 297.98C313.414 298.556 313.502 299.197 313.401 299.823C313.269 300.64 313.158 301.363 313.053 302.027C312.853 303.314 312.68 304.426 312.473 305.529C312.153 307.255 311.816 309.004 311.489 310.696C310.87 313.912 310.233 317.216 309.669 320.503C311.12 318.192 312.496 315.829 313.254 313.453C318.6 296.68 332.416 281.73 343.064 272.141C346.02 269.476 349.079 266.843 352.038 264.295C357.041 259.974 362.238 255.51 366.993 250.841C369.324 248.553 369.495 247.243 371.232 244.944C371.678 244.353 372.315 243.936 373.034 243.763C373.754 243.591 374.511 243.675 375.176 244C376.54 244.683 376.236 245.87 375.835 247.343C375.519 248.653 375.129 249.944 374.669 251.21C372.278 258.332 366.691 266.365 362.652 273.511C360.534 277.252 358.269 280.963 356.079 284.55C355.224 285.95 354.34 287.399 353.48 288.823L353.043 289.546C352.17 291.002 351.267 292.502 350.278 293.965C349.902 294.517 349.53 295.075 349.157 295.63C347.48 298.131 345.745 300.703 343.837 303.15C342.034 305.459 340.064 307.621 338.152 309.714C337.676 310.237 337.199 310.76 336.726 311.285C332.769 315.677 328.748 320.073 325.336 323.793C322.607 326.775 320.292 329.277 317.904 331.785C314.245 335.685 310.192 339.904 305.537 344.709ZM322.291 357.475C321.572 357.743 320.78 357.743 320.061 357.473C319.342 357.204 318.744 356.684 318.378 356.008C318.013 355.333 317.903 354.549 318.07 353.799C318.237 353.05 318.669 352.386 319.287 351.93C319.601 351.7 319.894 351.443 320.165 351.164C322.837 348.389 326.305 344.703 329.53 340.766C332.405 337.25 335.168 333.488 337.84 329.85C338.304 329.222 338.767 328.593 339.23 327.962C341.427 324.985 343.607 321.894 345.716 318.908L346.951 317.155L347.003 317.082C347.956 315.736 348.854 314.465 349.634 313.143C352.404 308.454 355.374 303.401 358.315 298.22C360.471 294.422 362.181 291.27 363.661 288.3C366.952 281.741 370.159 275.109 372.588 270.054C373.043 269.087 373.527 268.109 373.989 267.165C375.642 263.772 377.352 260.266 378.749 256.765C381.919 248.824 384.075 240.937 385.155 233.325C385.405 231.567 385.539 229.796 385.68 227.919C385.705 227.61 385.728 227.301 385.753 226.991C385.796 226.419 385.993 225.869 386.324 225.4L386.435 225.24L396.772 208.168C402.487 197.179 405.846 184.093 406.753 169.279C406.753 169.261 406.753 169.242 406.753 169.224C407.129 164.432 407.06 160.45 406.981 156.234C406.951 154.555 406.922 152.823 406.922 151.03C406.922 150.417 407.099 149.817 407.433 149.302C407.766 148.788 408.241 148.38 408.8 148.129L409.232 147.933L409.662 147.74C410.29 147.457 410.993 147.387 411.666 147.538C412.338 147.689 412.943 148.055 413.389 148.579C413.872 149.143 414.37 149.695 414.893 150.282C416.128 151.608 417.284 153.006 418.356 154.467C430.637 171.833 436.925 189.419 437.589 208.229C438.328 229.1 433.851 249.224 424.285 268.041C414.124 288.027 399.303 304.219 387.527 316.095C369.793 334 347.838 347.918 322.291 357.475Z" fill="#57684B"/>
<path d="M127.64 202.873C126.534 212.009 125.775 221.183 124.851 230.339C124.331 235.49 123.78 240.634 123.209 246.104C122.191 245.99 121.645 246.006 121.147 245.861C112.13 243.241 103.135 240.539 94.0995 237.985C89.2236 236.607 84.3363 235.129 79.3535 234.346C75.0803 233.664 72.3649 235.747 71.0231 239.506C69.4971 243.78 70.3181 246.9 73.9432 249.488C75.4309 250.563 77.0829 251.389 78.835 251.935C94.236 256.531 109.623 261.171 125.104 265.535C133.841 267.998 138.717 263.988 139.311 254.857C139.845 246.65 140.776 238.467 141.608 230.28C142.477 221.77 143.509 213.278 144.337 204.763C144.792 200.012 143.007 196.576 139.588 194.918C133.903 192.171 128.52 195.603 127.64 202.873Z" fill="#88C0D0"/>
<path d="M277.397 116.035C282.705 120.096 288.741 121.72 295.548 120.217C305.348 118.054 312.702 112.658 316.075 102.822C317.098 99.8378 317.044 96.7494 314.608 94.3273C312.127 91.8621 309.014 91.5983 305.846 92.6171C304.026 93.1971 302.33 94.1886 301.168 94.7231C300.815 90.136 301.038 85.4511 299.967 81.0778C298.7 75.9062 295.559 71.6716 290.126 69.8159C286.487 68.5764 283.683 69.9205 283.117 73.707C282.765 76.054 283.44 78.567 283.729 80.9959C284.238 85.2487 285.512 89.5469 285.198 93.7315C284.595 101.757 282.051 109.344 277.397 116.035Z" fill="#88C0D0"/>
<path d="M366.337 466.294C359.039 466.45 354.056 470.521 354.375 477.781C354.656 483.316 356.048 488.737 358.468 493.723C363.519 504.052 371.636 510.959 381.402 511.998C393.362 512.126 400.553 505.176 399.786 496.459C398.424 480.953 381.797 465.961 366.337 466.294Z" fill="#88C0D0"/>
<path d="M85.1638 466.896C67.5523 462.948 49.204 478.722 48.972 498.053C48.8583 507.557 54.1868 512.514 63.909 511.95C80.3561 510.993 96.096 492.597 94.3175 476.345C93.724 470.928 90.3854 468.069 85.1638 466.896Z" fill="#88C0D0"/>
<path d="M336.426 452.182C339.456 450.019 342.587 447.784 345.701 445.689C371.447 428.376 388.893 404.273 401.214 385.209C411.314 369.587 418.701 351.248 423.174 330.703C423.752 328.053 424.229 325.37 424.689 322.772C425.087 320.541 425.496 318.224 425.96 316.007C425.99 315.863 426.021 315.718 426.053 315.572C426.015 314.435 426.888 311.294 427.484 306.38C427.834 303.503 428.3 299.737 428.848 294.861C429.701 287.267 430.092 283.263 430.413 280.62C429.958 281.448 429.524 282.278 429.064 283.108C424.971 290.533 419.774 298.154 413.202 306.403C412.169 307.699 411.073 309.048 409.945 310.412C407.509 313.353 404.867 316.436 401.628 320.116C394.058 328.758 385.589 336.57 376.364 343.418C367.114 350.245 357.106 355.98 346.54 360.511C342.853 362.103 339.285 363.792 335.51 365.596C333.77 366.426 331.974 367.283 330.138 368.141C329.558 368.408 329.072 368.844 328.743 369.391C328.415 369.939 328.258 370.572 328.294 371.21C328.329 371.848 328.556 372.46 328.944 372.967C329.332 373.474 329.864 373.853 330.47 374.054C337.907 376.555 345.521 377.774 353.745 377.774C357.438 377.761 361.126 377.524 364.79 377.065C358.598 379.553 352.044 381.028 345.382 381.433C340.345 381.768 335.169 381.929 329.561 381.929C324.189 381.929 318.535 381.779 312.277 381.474C310.398 381.381 308.499 381.336 306.637 381.336C282.603 381.336 260.404 388.866 238.779 404.358C232.866 408.583 227.601 413.711 222.645 420.034C220.439 422.849 217.935 425.587 215.516 428.221C213.924 429.956 212.291 431.748 210.719 433.577C208.874 435.745 207.363 438.176 206.235 440.79C205.978 441.369 205.9 442.011 206.01 442.635C206.12 443.258 206.414 443.834 206.853 444.29C207.293 444.746 207.858 445.06 208.477 445.193C209.096 445.326 209.74 445.272 210.328 445.036C210.399 445.007 210.503 444.973 210.612 444.934C211.13 444.769 211.628 444.548 212.097 444.275C217.605 440.93 223.605 438.474 229.877 436.997C235.711 435.598 241.917 434.921 248.853 434.921C252.219 434.921 255.676 435.078 259.447 435.403C269.148 436.242 279.178 437.111 289.205 437.111C294.331 437.13 299.454 436.868 304.551 436.326C325.513 434.038 343.818 424.473 358.957 407.898C360.94 405.727 362.107 405.29 363.346 405.29C363.644 405.292 363.942 405.317 364.236 405.365C365.223 405.52 365.989 405.95 366.335 406.539C366.628 407.034 366.635 407.676 366.357 408.426C365.834 409.827 365.031 411.107 363.997 412.188C352.073 424.418 336.895 432.985 317.603 438.373C307.162 441.291 296.471 441.58 284.581 441.643C282.166 441.657 279.705 441.657 277.324 441.657C268.55 441.657 259.478 441.657 250.543 442.289C231.556 443.626 215.113 451.404 201.67 465.404C198.318 468.897 195.1 472.909 191.834 477.642C191.202 478.552 189.278 481.351 190.652 484.053C192.025 486.755 195.487 486.857 196.621 486.889C200.119 486.98 203.687 487.116 207.137 487.23C213.946 487.473 220.987 487.723 227.933 487.723C231.601 487.723 234.949 487.655 238.167 487.516C264.921 486.35 291.124 478.936 316.045 465.477C323.209 461.615 329.927 456.819 336.426 452.182Z" fill="#5E81AC"/>
<path d="M33.2268 267.491C33.1714 266.862 32.9304 266.264 32.5345 265.773C32.1386 265.282 31.6056 264.919 31.0032 264.731C30.4008 264.543 29.7562 264.539 29.1511 264.718C28.5461 264.897 28.0079 265.252 27.605 265.737C22.4129 271.998 20.3661 278.928 18.3876 285.646C17.985 287.01 17.5689 288.416 17.139 289.771C14.5533 297.915 13.9688 306.63 15.2969 317.198C16.9048 329.968 20.4139 343.013 26.0244 357.084C26.8727 359.208 27.8801 361.239 28.8535 363.203C29.2833 364.068 29.7268 364.964 30.143 365.837C30.4416 366.466 30.9381 366.98 31.5564 367.299C32.1747 367.619 32.8809 367.728 33.5666 367.608C34.2524 367.488 34.8801 367.147 35.3535 366.637C35.8269 366.126 36.12 365.475 36.1879 364.782C37.0316 356.167 38.6099 348.621 41.0092 341.712C43.5229 334.349 47.2158 327.444 51.9436 321.265C52.3815 320.693 52.6127 319.99 52.5995 319.27C52.5863 318.55 52.3294 317.856 51.8708 317.301C46.1671 310.396 41.8779 302.812 38.76 294.104C35.9172 286.185 34.116 277.475 33.2268 267.491Z" fill="#88C0D0"/>
<path d="M215.115 403.254C215.657 403.633 216.303 403.833 216.964 403.827C217.625 403.821 218.268 403.61 218.804 403.223C220.952 401.67 223.029 400.161 225.035 398.697C229.356 395.558 233.418 392.593 237.543 389.709C247.183 382.957 258.323 377.565 270.653 373.687C275.522 372.155 270.915 373.528 275.522 372.155C275.916 372.036 281.89 367.022 282.222 366.765C282.957 366.176 283.587 365.628 284.18 365.12C288.999 360.836 293.732 356.299 297.905 352.298C300.232 350.067 302.226 348.141 304.412 345.881L305.549 344.709C310.204 339.904 314.257 335.685 317.941 331.812C320.329 329.311 322.64 326.809 325.373 323.821C328.784 320.098 332.805 315.702 336.762 311.312C337.235 310.787 337.713 310.264 338.188 309.741C340.092 307.649 342.055 305.486 343.874 303.178C345.784 300.731 347.513 298.152 349.193 295.657C349.566 295.102 349.939 294.545 350.314 293.992C351.304 292.53 352.207 291.036 353.08 289.573L353.517 288.85C354.376 287.426 355.261 285.978 356.116 284.577C358.306 280.99 360.571 277.279 362.688 273.538C366.727 266.392 372.315 258.36 374.705 251.237C375.166 249.971 375.556 248.68 375.872 247.371C376.272 245.897 376.584 244.698 375.213 244.028C374.548 243.702 373.791 243.618 373.071 243.791C372.351 243.963 371.714 244.38 371.269 244.971C369.538 247.271 369.361 248.581 367.03 250.868C362.275 255.537 357.089 260.004 352.075 264.323C349.118 266.87 346.057 269.503 343.101 272.169C332.453 281.757 318.637 296.707 313.29 313.48C312.533 315.856 311.157 318.219 309.706 320.53C310.266 317.244 310.902 313.935 311.525 310.723C311.853 309.031 312.19 307.283 312.51 305.556C312.717 304.453 312.89 303.341 313.09 302.054C313.195 301.39 313.318 300.667 313.438 299.85C313.539 299.225 313.45 298.583 313.184 298.008C312.918 297.432 312.486 296.949 311.944 296.621C311.401 296.293 310.773 296.134 310.14 296.165C309.507 296.195 308.897 296.415 308.389 296.794C307.8 297.233 307.32 297.599 306.9 297.931C306.199 298.465 305.692 298.841 305.205 299.18C303.22 300.526 301.23 301.909 299.306 303.273C294.921 306.348 290.387 309.525 285.754 312.222C275.445 318.254 265.776 325.32 256.897 333.309C247.306 341.905 238.528 352.151 230.061 364.627L229.301 365.746C224.525 372.773 219.581 380.039 217.021 388.715C216.313 391.115 215.656 393.521 214.94 396.07C214.605 397.275 214.257 398.517 213.898 399.809C213.723 400.439 213.745 401.107 213.963 401.724C214.181 402.34 214.583 402.874 215.115 403.254Z" fill="#709353"/>
<path d="M213.898 16.6176C213.325 16.1352 212.6 15.8703 211.851 15.8694C211.722 15.8698 211.592 15.8781 211.464 15.8944C210.556 15.915 209.689 16.2781 209.038 16.911C208.496 17.45 207.953 17.9844 207.412 18.5211C205.797 20.1131 204.13 21.7619 202.538 23.4766C184.913 42.4754 175.552 62.7409 173.921 85.4239C172.784 101.189 176.237 115.728 184.174 128.634C190.96 139.682 199.527 147.849 210.37 153.603C210.855 153.86 211.399 153.988 211.948 153.974C212.497 153.959 213.033 153.803 213.504 153.52C213.975 153.237 214.365 152.837 214.635 152.359C214.906 151.881 215.048 151.341 215.048 150.792C215.048 105.51 215.048 62.7364 215.048 19.0533C215.046 18.5879 214.942 18.1286 214.743 17.7077C214.544 17.2869 214.256 16.9148 213.898 16.6176Z" fill="#A3BE8C"/>
<path d="M372.587 270.061C370.158 275.112 366.952 281.748 363.661 288.307C362.169 291.277 360.477 294.429 358.314 298.227C355.374 303.408 352.401 308.461 349.633 313.15C348.853 314.472 347.955 315.743 347.002 317.089L346.95 317.162L345.715 318.915C343.607 321.902 341.426 324.992 339.229 327.969C338.765 328.6 338.302 329.229 337.839 329.857C335.167 333.495 332.404 337.25 329.529 340.773C326.314 344.71 322.836 348.396 320.164 351.171C319.894 351.45 319.6 351.707 319.286 351.937C318.669 352.393 318.236 353.057 318.069 353.806C317.902 354.556 318.012 355.34 318.378 356.016C318.743 356.691 319.341 357.211 320.06 357.48C320.779 357.75 321.571 357.75 322.291 357.482C347.837 347.93 369.787 334.007 387.538 316.109C399.314 304.233 414.146 288.041 424.296 268.055C433.861 249.238 438.339 229.114 437.6 208.243C436.936 189.433 430.643 171.856 418.367 154.481C417.295 153.02 416.138 151.622 414.903 150.296C414.38 149.709 413.882 149.159 413.4 148.593C412.953 148.068 412.348 147.703 411.676 147.552C411.004 147.401 410.301 147.471 409.673 147.754L409.243 147.947L408.811 148.142C408.251 148.394 407.777 148.801 407.443 149.316C407.11 149.831 406.933 150.431 406.932 151.044C406.932 152.836 406.962 154.569 406.991 156.248C407.064 160.464 407.132 164.435 406.764 169.238C406.764 169.256 406.764 169.274 406.764 169.293C405.854 184.111 402.498 197.197 396.782 208.182L386.446 225.254L386.335 225.413C386.004 225.882 385.806 226.433 385.764 227.005C385.739 227.315 385.716 227.624 385.691 227.933C385.55 229.809 385.416 231.572 385.166 233.339C384.085 240.951 381.93 248.838 378.759 256.779C377.363 260.279 375.653 263.786 373.999 267.179C373.526 268.116 373.051 269.094 372.587 270.061Z" fill="#A3BE8C"/>
<path d="M147.322 347.993C148.95 347.238 150.672 346.536 152.493 345.79C153.417 345.412 154.374 345.021 155.386 344.598C155.861 344.399 156.281 344.088 156.61 343.691C156.938 343.294 157.165 342.823 157.272 342.319C157.378 341.815 157.361 341.292 157.221 340.796C157.081 340.301 156.823 339.846 156.469 339.472C156.071 339.051 155.704 338.63 155.35 338.223C154.554 337.314 153.733 336.368 152.673 335.59C145.716 330.48 138.154 327.892 130.199 327.892C126.567 327.907 122.955 328.425 119.465 329.429C99.1425 335.185 84.8968 353.879 83.1934 377.053C82.0563 392.502 86.1499 407.328 95.7016 422.378C97.546 425.278 99.5496 428.039 101.671 430.961C102.67 432.326 103.702 433.759 104.755 435.248C105.049 435.664 105.439 436.003 105.891 436.238C106.343 436.472 106.845 436.594 107.355 436.594C108.199 436.594 109.009 436.259 109.606 435.662C110.203 435.065 110.539 434.255 110.539 433.411C110.539 430.984 110.539 428.635 110.539 426.361C110.539 421.439 110.525 416.791 110.552 412.151C110.6 404.403 111.967 396.245 114.732 387.214C117.532 378.083 121.555 370.228 126.722 363.865C132.162 357.152 139.094 351.821 147.322 347.993Z" fill="#88C0D0"/>
<path d="M130.09 435.382C130.106 434.245 130.122 433.047 130.113 431.864C130.022 420.395 134.279 410.134 143.128 400.496C145.109 398.34 147.206 396.175 149.235 394.105C153.276 389.955 157.454 385.666 161.097 380.969C168.211 371.807 169.382 361.05 164.579 348.998C164.277 348.241 163.696 347.629 162.956 347.287C162.216 346.945 161.373 346.9 160.601 347.161C159.812 347.427 159.023 347.682 158.261 347.927C156.546 348.48 154.925 349.003 153.28 349.663C139.537 355.175 129.331 365.846 122.078 382.279C116.873 394.078 115.39 407.491 117.412 424.491C118.476 433.445 120.423 443.872 126.781 453.312C127.235 453.986 127.928 454.461 128.72 454.64C129.512 454.82 130.343 454.69 131.042 454.277C131.741 453.864 132.256 453.2 132.482 452.42C132.707 451.64 132.626 450.803 132.255 450.08C129.954 445.58 130.022 440.627 130.09 435.382Z" fill="#5E81AC"/>
<path d="M353.14 106.19C352.587 103.993 352.022 101.755 351.446 99.4764C351.295 98.8733 350.97 98.3277 350.512 97.907C350.054 97.4863 349.483 97.2089 348.869 97.109C348.704 97.0838 348.537 97.0708 348.369 97.0703C347.832 97.0705 347.304 97.2065 346.833 97.4658C346.363 97.725 345.966 98.0991 345.679 98.5531C345.495 98.8442 345.354 99.0534 345.24 99.224C344.947 99.6229 344.71 100.06 344.535 100.523C344.239 101.344 343.905 102.274 343.648 103.252C340.464 115.521 333.796 125.4 323.862 132.614C318.063 136.819 311.934 140.838 306.01 144.724C300.176 148.549 294.147 152.504 288.371 156.671C283.1 160.48 278.492 165.13 274.73 170.434C269.58 177.728 265.901 185.955 263.9 194.657C263.257 197.452 262.72 200.288 262.201 203.028C261.974 204.249 261.733 205.514 261.49 206.747C261.352 207.447 261.453 208.173 261.778 208.809C262.102 209.444 262.631 209.953 263.278 210.252C263.926 210.551 264.656 210.624 265.35 210.459C266.044 210.294 266.663 209.9 267.107 209.341C271.989 203.154 277.833 197.792 284.416 193.458C295.626 186.113 308.398 183.936 321.593 182.19C331.952 180.825 340.057 178.551 347.093 175.083C349.183 174.052 351.678 171.821 352.551 169.17C357.225 154.894 361.369 137.883 356.663 119.953C355.465 115.432 354.328 110.943 353.14 106.19Z" fill="#A3BE8C"/>
<path d="M341.708 183.968C341.293 183.969 340.881 184.05 340.496 184.207C338.388 184.525 336.252 184.852 334.181 185.169C328.968 185.965 323.578 186.788 318.261 187.538L317.756 187.611C307.957 188.992 297.827 190.422 288.874 196.192C268.633 209.218 258.197 229.302 257.838 255.885C257.822 256.991 258.092 257.946 258.352 258.867C258.461 259.253 258.579 259.651 258.67 260.079C258.786 260.591 259.028 261.067 259.373 261.464C259.718 261.86 260.156 262.165 260.648 262.351C261.14 262.537 261.67 262.599 262.191 262.53C262.712 262.461 263.208 262.264 263.635 261.957C264.644 261.232 265.609 260.538 266.546 259.87C268.515 258.457 270.378 257.125 272.215 255.776C273.925 254.518 275.611 253.197 277.241 251.91C280.712 249.181 283.989 246.618 287.568 244.551C297.629 238.74 307.309 231.628 318.027 222.17C326.198 214.961 332.293 206.185 338.188 197.699C340.153 194.87 342.184 191.948 344.246 189.151C344.608 188.661 344.828 188.08 344.883 187.474C344.938 186.867 344.824 186.257 344.556 185.71C344.289 185.184 343.881 184.743 343.379 184.436C342.876 184.128 342.298 183.966 341.708 183.968Z" fill="#709353"/>
<path d="M242.26 127.75C248.077 119.583 251.548 109.913 253.176 97.3161C254.593 86.3999 254.029 75.1584 251.498 63.8988C249.542 55.1999 245.503 46.5511 239.149 37.4611C237.072 34.4887 235.021 31.5299 232.849 28.3983L229.77 23.9613C229.383 23.404 228.828 22.9848 228.186 22.765C227.544 22.5452 226.849 22.5361 226.202 22.7393C225.554 22.9424 224.989 23.347 224.587 23.8941C224.186 24.4412 223.97 25.1022 223.971 25.7807V137.818C223.971 138.439 224.152 139.047 224.493 139.566C224.834 140.085 225.32 140.493 225.89 140.74L226.627 141.058L227.364 141.377C227.978 141.642 228.66 141.707 229.313 141.562C229.966 141.418 230.558 141.071 231.003 140.572C232.14 139.307 233.325 138.034 234.482 136.803C237.159 133.972 239.92 131.036 242.26 127.75Z" fill="#709353"/>
<path d="M134.468 127.89C131.636 118.338 130.638 108.186 131.511 97.7455C131.553 97.2358 131.472 96.7236 131.274 96.2521C131.076 95.7806 130.767 95.3637 130.374 95.0367C129.981 94.7096 129.515 94.4821 129.015 94.3732C128.516 94.2644 127.997 94.2775 127.504 94.4115L126.551 94.6662C125.869 94.8481 125.232 95.0187 124.577 95.2074C114.398 98.1184 105.824 104.272 98.2507 109.701C78.8948 123.59 63.835 137.919 52.2183 153.509C44.6088 163.72 36.7718 174.723 31.8823 187.095C27.2338 198.857 23.6701 211.201 20.2269 223.125C19.1399 226.891 18.0164 230.782 16.877 234.589C13.8318 244.767 12.722 253.49 13.3861 262.039C13.4383 262.739 13.7202 263.402 14.188 263.925C14.6558 264.448 15.2832 264.802 15.9728 264.931C16.6623 265.061 17.3754 264.959 18.0012 264.642C18.627 264.324 19.1304 263.809 19.4332 263.176C19.9449 262.105 20.4521 261.018 20.941 259.965C21.9917 257.705 23.0788 255.367 24.2523 253.174C25.5941 250.673 27.0609 248.132 28.48 245.683C31.2091 240.969 34.0314 236.095 36.2374 230.953C39.3431 223.687 43.0716 216.704 47.381 210.08C51.6918 203.485 56.5965 197.298 62.0338 191.595C71.9221 181.227 82.8656 173.324 94.5551 168.101C106.538 162.749 119.719 160.032 133.733 160.025H145.611C146.2 160.025 146.777 159.862 147.278 159.553C147.78 159.245 148.186 158.804 148.452 158.279C148.717 157.753 148.832 157.165 148.784 156.578C148.735 155.992 148.525 155.43 148.176 154.956C141.845 146.334 137.233 137.23 134.468 127.89Z" fill="#A3BE8C"/>
</svg>
