<svg width="449" height="190" viewBox="0 0 449 190" fill="none" xmlns="http://www.w3.org/2000/svg">
<path d="M225.263 46.16C227.066 49.8347 227.967 53.9253 227.967 58.432C227.967 62.9387 227.066 67.0293 225.263 70.704C223.46 74.3093 221.138 77.1867 218.295 79.336C212.54 83.7733 206.578 85.992 200.407 85.992H187.407V97.744C187.407 99.3387 187.338 100.552 187.199 101.384C187.13 102.147 186.818 103.048 186.263 104.088C185.292 105.96 182.588 106.896 178.151 106.896C173.298 106.896 170.455 105.613 169.623 103.048C169.207 101.869 168.999 100.067 168.999 97.64V39.92C168.999 38.3253 169.034 37.1467 169.103 36.384C169.242 35.552 169.588 34.616 170.143 33.576C171.114 31.704 173.818 30.768 178.255 30.768H200.511C206.612 30.768 212.54 32.9867 218.295 37.424C221.138 39.5733 223.46 42.4853 225.263 46.16ZM200.511 67.584C202.591 67.584 204.636 66.8213 206.647 65.296C208.658 63.7707 209.663 61.4827 209.663 58.432C209.663 55.3813 208.658 53.0933 206.647 51.568C204.636 49.9733 202.556 49.176 200.407 49.176H187.407V67.584H200.511ZM275.269 36.176L303.349 94.208C304.528 96.5653 305.117 98.3333 305.117 99.512C305.117 102.008 303.106 104.261 299.085 106.272C296.728 107.451 294.856 108.04 293.469 108.04C292.152 108.04 291.042 107.728 290.141 107.104C289.309 106.48 288.685 105.821 288.269 105.128C287.922 104.435 287.402 103.395 286.709 102.008L281.301 90.776H252.493L247.085 102.008C246.392 103.395 245.837 104.4 245.421 105.024C245.074 105.648 244.45 106.307 243.549 107C242.717 107.624 241.608 107.936 240.221 107.936C238.904 107.936 237.066 107.347 234.709 106.168C230.688 104.227 228.677 102.008 228.677 99.512C228.677 98.3333 229.266 96.5653 230.445 94.208L258.525 36.072C259.288 34.4773 260.432 33.1947 261.957 32.224C263.552 31.2533 265.216 30.768 266.949 30.768C270.693 30.768 273.466 32.5707 275.269 36.176ZM266.845 61.136L259.981 75.384H273.813L266.845 61.136ZM358.453 87.032L360.325 85.68C362.682 84.2933 364.346 83.6 365.317 83.6C367.466 83.6 369.789 85.5413 372.285 89.424C373.81 91.8507 374.573 93.792 374.573 95.248C374.573 96.704 374.087 97.9173 373.117 98.888C372.215 99.8587 371.141 100.725 369.893 101.488C368.645 102.251 367.431 102.979 366.253 103.672C365.143 104.365 362.821 105.267 359.285 106.376C355.749 107.485 352.317 108.04 348.989 108.04C345.73 108.04 342.402 107.624 339.005 106.792C335.677 105.891 332.21 104.435 328.605 102.424C325.069 100.344 321.879 97.848 319.037 94.936C316.194 91.9547 313.837 88.176 311.965 83.6C310.162 78.9547 309.261 73.928 309.261 68.52C309.261 63.112 310.162 58.224 311.965 53.856C313.767 49.4187 316.055 45.7787 318.829 42.936C321.671 40.024 324.895 37.5973 328.501 35.656C335.295 31.912 342.125 30.04 348.989 30.04C352.247 30.04 355.541 30.56 358.869 31.6C362.266 32.5707 364.831 33.576 366.565 34.616L369.061 36.072C370.309 36.8347 371.279 37.4587 371.973 37.944C373.775 39.4 374.677 41.064 374.677 42.936C374.677 44.7387 373.949 46.6453 372.493 48.656C369.789 52.4 367.362 54.272 365.213 54.272C363.965 54.272 362.197 53.5093 359.909 51.984C356.997 49.6267 353.114 48.448 348.261 48.448C343.754 48.448 339.317 50.008 334.949 53.128C332.869 54.6533 331.135 56.8027 329.749 59.576C328.362 62.3493 327.669 65.504 327.669 69.04C327.669 72.5067 328.362 75.6267 329.749 78.4C331.135 81.1733 332.903 83.3573 335.053 84.952C339.282 88.0027 343.685 89.528 348.261 89.528C350.41 89.528 352.421 89.2507 354.293 88.696C356.234 88.1413 357.621 87.5867 358.453 87.032ZM405.015 88.592H437.047C438.641 88.592 439.82 88.6613 440.583 88.8C441.415 88.8693 442.351 89.1813 443.391 89.736C445.263 90.7067 446.199 93.4107 446.199 97.848C446.199 102.701 444.916 105.544 442.351 106.376C441.172 106.792 439.369 107 436.943 107H395.759C390.905 107 388.063 105.683 387.231 103.048C386.815 101.939 386.607 100.171 386.607 97.744V39.92C386.607 36.384 387.265 33.992 388.583 32.744C389.9 31.4267 392.396 30.768 396.071 30.768H437.047C438.641 30.768 439.82 30.8373 440.583 30.976C441.415 31.0453 442.351 31.3573 443.391 31.912C445.263 32.8827 446.199 35.5867 446.199 40.024C446.199 44.8773 444.916 47.72 442.351 48.552C441.172 48.968 439.369 49.176 436.943 49.176H405.015V59.68H425.607C427.201 59.68 428.38 59.7493 429.143 59.888C429.975 59.9573 430.911 60.2693 431.951 60.824C433.823 61.7947 434.759 64.4987 434.759 68.936C434.759 73.7893 433.441 76.632 430.807 77.464C429.628 77.88 427.825 78.088 425.399 78.088H405.015V88.592Z" fill="#97B57D"/>
<path d="M18.0185 140.995C18.5562 140.648 18.8627 140.251 18.9551 139.783C19.059 139.258 18.9194 138.587 18.5399 137.79C18.4367 137.573 18.3266 137.349 18.2203 137.133C17.8432 136.366 17.4536 135.574 17.1813 134.716C15.2771 128.713 15.8133 122.51 18.7758 116.277C19.523 114.707 20.6381 113.353 21.7143 112.044C21.9137 111.802 22.1193 111.551 22.3172 111.307C23.0015 110.459 23.2995 109.924 23.3119 109.522C23.3243 109.12 23.0497 108.598 22.4204 107.806C22.3234 107.685 22.2334 107.564 22.1465 107.448C22.0169 107.276 21.8951 107.113 21.7709 106.972C17.5809 102.197 15.482 96.322 15.3602 89.0103C15.2453 82.1045 17.5429 75.7054 22.1884 69.993C28.1522 62.6635 36.0582 58.9468 45.6875 58.9468H45.928C52.8012 58.9911 59.0514 61.2242 64.5062 65.5834C73.2959 72.6079 76.8288 82.1821 75.0084 94.0392C74.6344 96.4709 73.9221 98.8546 73.2385 101.159C72.9406 102.159 72.6325 103.193 72.3602 104.206C72.0878 105.22 72.354 106.28 72.9856 106.654C73.1385 106.752 73.3154 106.806 73.4969 106.809C73.8965 106.809 74.4358 106.506 75.055 105.933C75.5097 105.512 75.9675 105.063 76.4105 104.628C77.4774 103.58 78.5831 102.496 79.844 101.602C85.8187 97.378 91.9408 93.153 97.8604 89.0678C99.5093 87.9295 101.214 86.7524 102.89 85.5939C107.294 82.5484 111.166 79.0761 114.398 75.2639C117.744 71.3124 120.507 66.9023 122.603 62.1677C124.262 58.4332 125.319 54.6101 125.744 50.8034C126.173 46.9649 125.977 43.0107 125.156 39.0496C124.17 34.2843 122.48 29.6924 120.141 25.425C119.376 24.0137 118.457 22.6917 117.4 21.4832C117.19 21.245 116.813 21.1085 116.365 21.1085C115.955 21.1067 115.552 21.2178 115.201 21.4297C114.393 21.9418 114.003 22.7139 114.208 23.3975C115.022 26.1132 115.227 28.9516 114.836 32.067C114.138 37.6157 111.605 41.867 107.305 44.7007C105.115 46.1447 102.751 47.3482 100.464 48.5121L99.8538 48.8225C97.2381 50.1571 94.9429 51.7951 93.0326 53.6914C91.0481 55.6703 89.4133 57.9712 88.1977 60.4964C86.422 64.1495 85.499 68.1581 85.4983 72.2199C85.4874 75.5495 85.4858 78.9356 85.4843 82.2101C85.4843 85.2021 85.4843 88.2957 85.4734 91.3397C85.4734 91.9022 85.4734 92.845 84.7697 93.3393C83.7718 94.0454 82.7235 94.7018 81.7102 95.3373C81.3656 95.553 81.0118 95.7765 80.6588 95.9992C80.52 96.0873 80.3629 96.1428 80.1995 96.1615C80.0362 96.1801 79.8707 96.1614 79.7156 96.1068C79.5605 96.0522 79.4198 95.9631 79.3041 95.8462C79.1885 95.7293 79.1009 95.5876 79.0479 95.432C79.0262 95.3683 79.0084 95.3233 78.9921 95.2768C78.9168 95.1032 78.8762 94.9166 78.8726 94.7274V92.9862C78.8656 80.2221 78.8578 67.0235 78.8803 54.0414C78.8803 53.461 79.1713 52.855 79.7401 52.2397C80.3546 51.5762 80.9994 50.9299 81.6233 50.306C82.8601 49.0646 84.0286 47.9007 85.0024 46.5769C87.5033 43.1853 89.0924 39.0581 89.7263 34.3102C90.0238 32.1322 90.1166 29.931 90.0033 27.7357C89.885 25.5423 89.5269 23.3684 88.9356 21.2528C88.0402 18.0715 86.6536 14.9677 84.6967 11.7864C83.269 9.45862 82.0042 7.62431 80.7154 6.01037C79.1635 4.06278 77.5822 2.45738 75.8899 1.10182C74.8695 0.288647 74.3396 0 73.86 0C73.3658 0 72.6961 0.310373 71.765 0.984659L71.6199 1.08631C71.436 1.20874 71.2612 1.34437 71.097 1.49212C67.4058 5.07538 64.5233 8.56164 62.2839 12.1503C59.7396 16.2271 58.0473 20.3876 57.1084 24.8679C56.5999 27.2843 56.3695 29.751 56.4217 32.2198C56.4821 34.6768 56.817 37.1194 57.4204 39.502C58.7984 44.9808 62.0348 49.7994 67.3143 54.2323C68.2764 55.0392 69.2836 55.8377 70.2628 56.6089C71.2847 57.419 72.3423 58.2562 73.3627 59.116C74.1122 59.7484 75.1388 60.6143 75.2769 61.7542C75.4414 63.1128 75.4127 64.4435 75.3817 65.8526C75.37 66.3958 75.3576 66.9599 75.3576 67.5232C75.3575 67.7262 75.3006 67.925 75.1933 68.0973C75.0859 68.2695 74.9325 68.4082 74.7503 68.4977C74.5682 68.5872 74.3646 68.6239 74.1627 68.6036C73.9608 68.5833 73.7686 68.5069 73.6079 68.3829C73.5303 68.3224 73.4527 68.2704 73.3828 68.2208C73.1641 68.0832 72.9696 67.9104 72.8071 67.7094C70.1371 64.2084 66.6307 61.651 63.2678 59.3294C60.1641 57.1886 57.1791 55.0284 54.7721 52.1411C50.7854 47.3598 48.7385 41.9244 48.6888 35.987C48.6764 34.5538 48.9332 33.1486 49.1815 31.79C49.3437 30.9031 49.4965 30.0643 49.5803 29.2216C49.623 28.7925 49.7518 27.4882 49.3887 26.7169C48.903 25.6849 48.2248 25.1829 47.3131 25.1829C46.7598 25.1829 46.1313 25.3637 45.4438 25.7206C44.8169 26.0465 44.1775 26.3755 43.5591 26.6936C40.2598 28.3898 36.8473 30.145 33.7622 32.2152C28.9929 35.4171 24.5995 39.1462 20.6652 43.332C16.8166 47.4281 13.3303 52.0519 10.3042 57.0745C7.17951 62.2608 4.71204 68.1634 2.75902 75.1204C1.38967 79.9843 0.526899 84.9768 0.184478 90.0183C-0.0614927 93.7171 -0.0614927 97.0397 0.184478 100.174C0.536751 104.666 1.07913 108.71 1.84187 112.54C2.58661 116.234 3.65479 119.855 5.03406 123.362C6.42267 126.878 8.06338 130.289 9.94338 133.569C11.3835 136.096 13.0378 138.434 14.4671 140.389C15.0009 141.119 15.6853 141.505 16.4457 141.505C16.9578 141.506 17.5017 141.329 18.0185 140.995ZM89.215 70.54C89.298 70.1195 89.3795 69.6865 89.4578 69.2714C89.6348 68.3403 89.8179 67.3688 90.0375 66.4152C90.7206 63.446 91.9762 60.6385 93.734 58.1499C95.016 56.3434 96.5859 54.7596 98.3811 53.4618C100.352 52.0403 102.409 50.6909 104.399 49.3858C106.417 48.0597 108.512 46.6886 110.49 45.2539C113.883 42.7927 116.155 39.422 117.241 35.2359C117.329 34.8991 117.443 34.5818 117.543 34.3048C117.603 34.1469 117.684 33.9978 117.784 33.8617C117.823 33.8035 117.871 33.7321 117.934 33.6328C118.032 33.4779 118.167 33.3503 118.328 33.2618C118.488 33.1734 118.668 33.1269 118.852 33.1269C118.909 33.1271 118.966 33.1315 119.022 33.1401C119.232 33.1735 119.428 33.2677 119.584 33.411C119.741 33.5542 119.853 33.7404 119.905 33.9463C120.103 34.7253 120.295 35.4888 120.483 36.2368C120.891 37.8585 121.277 39.3902 121.682 40.932C123.287 47.0495 121.873 52.8534 120.279 57.724C119.982 58.6295 119.131 59.3907 118.416 59.7414C116.016 60.9278 113.25 61.6983 109.716 62.1662C105.215 62.7621 100.856 63.5047 97.0317 66.0109C94.7857 67.4894 92.7918 69.3191 91.1261 71.43C90.9747 71.6207 90.7636 71.755 90.5267 71.8113C90.2898 71.8676 90.0409 71.8428 89.8198 71.7406C89.5988 71.6385 89.4185 71.4651 89.3078 71.2483C89.1971 71.0314 89.1625 70.7836 89.2095 70.5447L89.215 70.54ZM98.5588 66.9389C101.617 64.9704 105.077 64.4823 108.413 64.0113L108.585 63.9865C110.398 63.7305 112.237 63.4496 114.017 63.178C114.724 63.0701 115.452 62.9584 116.172 62.8498C116.303 62.7962 116.443 62.7685 116.585 62.7683C116.786 62.7683 116.983 62.824 117.155 62.9294C117.326 63.0347 117.465 63.1855 117.555 63.365C117.647 63.5516 117.685 63.7597 117.667 63.9668C117.648 64.1738 117.573 64.3717 117.45 64.539C116.746 65.4934 116.053 66.4904 115.383 67.4557C113.371 70.3507 111.292 73.345 108.504 75.8047C104.847 79.0318 101.545 81.4582 98.1118 83.4407C96.8905 84.146 95.7724 85.0236 94.5883 85.9516C94.032 86.3877 93.457 86.8385 92.8735 87.2707C92.2465 87.7316 91.6111 88.1863 90.9391 88.6674C90.6194 88.8955 90.2904 89.1329 89.9459 89.3797C89.8003 89.4845 89.6311 89.5515 89.4533 89.575C89.2755 89.5984 89.0946 89.5775 88.9269 89.514C88.7592 89.4505 88.6097 89.3465 88.492 89.2112C88.3742 89.076 88.2918 88.9137 88.252 88.7388C88.2187 88.5929 88.1807 88.4571 88.1434 88.3252C88.0549 88.0148 87.9626 87.685 87.968 87.3079C88.0922 78.235 91.6545 71.3858 98.5588 66.9382V66.9389ZM76.4183 8.79442C76.418 8.56292 76.4917 8.3374 76.6287 8.15073C76.7656 7.96406 76.9585 7.82601 77.1794 7.75671C77.4003 7.68741 77.6376 7.69049 77.8566 7.7655C78.0756 7.84051 78.2649 7.98351 78.3969 8.17367L79.4475 9.68752C80.1886 10.756 80.8884 11.7655 81.5969 12.7796C83.7648 15.8833 85.1429 18.8319 85.8102 21.7998C86.6738 25.6415 86.8662 29.4769 86.3828 33.2014C85.8249 37.4993 84.6409 40.7985 82.6583 43.5849C81.8599 44.7061 80.9179 45.7079 80.0078 46.677C79.6128 47.0968 79.2047 47.5305 78.8206 47.9627C78.6687 48.1331 78.4671 48.2514 78.2442 48.3007C78.0214 48.35 77.7886 48.3278 77.5791 48.2374L77.3277 48.1288L77.0763 48.0201C76.8809 47.9363 76.7145 47.797 76.5975 47.6195C76.4805 47.442 76.4182 47.2341 76.4183 47.0215V8.79442ZM72.8412 52.3793C72.6806 52.4758 72.4977 52.5291 72.3103 52.534C72.1229 52.5389 71.9375 52.4952 71.772 52.4073C68.0755 50.4442 65.1525 47.6578 62.8364 43.8899C60.1284 39.4849 58.9513 34.5243 59.3385 29.1471C59.8948 21.408 63.0886 14.4936 69.102 8.0115C69.6452 7.42645 70.2139 6.86468 70.7649 6.32075C70.9495 6.13763 71.135 5.95528 71.3196 5.77139C71.542 5.55546 71.8377 5.43157 72.1476 5.42455C72.1913 5.419 72.2354 5.41615 72.2795 5.41601C72.5676 5.41601 72.8439 5.53046 73.0476 5.73418C73.2513 5.9379 73.3658 6.21421 73.3658 6.50232C73.3658 21.4064 73.3658 36.0002 73.3658 51.4498C73.3657 51.6368 73.3174 51.8206 73.2256 51.9834C73.1337 52.1463 73.0013 52.2826 72.8412 52.3793ZM4.56694 89.4037C4.34037 86.487 4.72213 83.5067 5.758 80.0382C6.14597 78.7393 6.53393 77.4117 6.90095 76.1268C8.07571 72.0562 9.2916 67.8468 10.8776 63.8337C12.5459 59.6126 15.2228 55.8586 17.816 52.3747C21.7795 47.0564 26.9177 42.1673 33.5216 37.4287C36.1039 35.5765 39.0308 33.4768 42.4992 32.4836C42.7227 32.4192 42.9415 32.361 43.1727 32.299L43.4978 32.2121C43.6662 32.1664 43.8431 32.1619 44.0135 32.199C44.184 32.2362 44.343 32.3138 44.4771 32.4254C44.6113 32.537 44.7165 32.6792 44.784 32.8401C44.8515 33.0009 44.8793 33.1757 44.865 33.3496C44.5701 36.9119 44.9108 40.3726 45.8737 43.6346C46.8172 46.8213 48.3908 49.9274 50.5495 52.8682C50.6684 53.03 50.7401 53.2216 50.7567 53.4218C50.7733 53.6219 50.734 53.8227 50.6434 54.0019C50.5527 54.1811 50.4141 54.3317 50.243 54.4368C50.0719 54.542 49.8751 54.5977 49.6742 54.5977H45.6262C40.8449 54.5977 36.3476 55.5288 32.2592 57.3531C28.2694 59.1377 24.5356 61.8317 21.1634 65.3692C19.3082 67.3148 17.6348 69.4258 16.164 71.676C14.6937 73.9358 13.4216 76.3185 12.362 78.7975C11.6093 80.5519 10.6464 82.2116 9.71526 83.8232C9.23108 84.6589 8.7306 85.5233 8.2728 86.3792C7.87242 87.1272 7.50152 87.9248 7.14304 88.6961C6.97622 89.0553 6.80318 89.4262 6.6286 89.7917C6.52527 90.0076 6.35351 90.1834 6.14 90.2917C5.9265 90.4 5.6832 90.4347 5.44793 90.3904C5.21266 90.3462 4.99859 90.2255 4.839 90.0471C4.6794 89.8686 4.58322 89.6425 4.56539 89.4037H4.56694ZM13.9922 116.588C13.1736 118.945 12.6351 121.52 12.3472 124.459C12.3241 124.695 12.2241 124.917 12.0625 125.092C11.901 125.266 11.6869 125.382 11.4529 125.423C11.2189 125.464 10.978 125.427 10.767 125.318C10.5561 125.209 10.3867 125.033 10.2848 124.819C10.1428 124.521 9.99149 124.215 9.84484 123.92C9.51274 123.25 9.169 122.557 8.87958 121.832C6.96535 117.032 5.76809 112.581 5.2195 108.224C4.76636 104.618 4.96577 101.645 5.84801 98.8662C5.99466 98.4007 6.13666 97.9235 6.274 97.4587C6.94906 95.1697 7.6474 92.8031 9.41885 90.6662C9.55633 90.5005 9.73994 90.3794 9.94638 90.3183C10.1528 90.2571 10.3728 90.2587 10.5783 90.3228C10.7838 90.3869 10.9657 90.5106 11.1008 90.6783C11.2358 90.8459 11.318 91.05 11.337 91.2644C11.6372 94.6708 12.2549 97.6426 13.2248 100.347C14.2886 103.315 15.752 105.903 17.6981 108.262C17.8545 108.451 17.9421 108.688 17.9467 108.934C17.9512 109.18 17.8723 109.419 17.7229 109.614C16.1101 111.722 14.8501 114.077 13.9922 116.588Z" fill="#57684B"/>
<path d="M128.41 117.17C131.558 114.833 134.448 112.168 137.031 109.219C138.136 107.964 139.038 106.912 139.869 105.909C140.257 105.443 140.628 104.983 140.98 104.541C143.222 101.726 144.993 99.1261 146.392 96.5927C150.157 89.7754 152.302 83.1768 152.952 76.4185C153.427 71.4105 152.932 66.3579 151.496 61.5369C150.12 56.8665 148.068 52.8557 145.396 49.6154C143.293 47.0634 140.838 44.7488 138.297 42.4055C138.083 42.2084 137.485 42.0051 136.853 42.0051C136.723 42.0041 136.594 42.0145 136.465 42.0361C135.631 42.1843 135.052 42.5141 134.744 43.0169C134.278 43.768 134.456 44.8217 134.682 45.5728C136.025 50.0181 136.151 54.9112 135.07 60.5312C134.423 63.891 133.12 67.3369 130.97 71.3757C127.394 78.0922 122.357 83.9613 115.999 88.821C113.153 90.9936 110.125 93.0033 107.196 94.9431C106.099 95.6709 104.963 96.4228 103.859 97.1716C101.87 98.517 99.8407 99.8726 97.8791 101.184C95.5513 102.736 93.1459 104.345 90.798 105.943C87.5499 108.151 84.7821 110.366 82.3356 112.705C79.6098 115.314 77.3464 118.02 75.4166 120.978C73.4354 124.013 71.8205 127.272 70.6059 130.687C69.4053 134.105 68.5811 137.643 68.1477 141.24C68.036 142.145 67.9335 143.07 67.8373 143.965C67.6046 146.079 67.3609 148.264 66.976 150.405C66.4531 153.323 65.4079 155.81 63.7823 158.009C63.6813 158.146 63.5496 158.257 63.3979 158.334C63.2462 158.41 63.0786 158.45 62.9086 158.45H62.876C62.7006 158.445 62.529 158.397 62.376 158.311C62.2231 158.225 62.0932 158.103 61.9977 157.956C59.4689 154.059 59.2043 150.951 61.0448 146.869L61.1007 146.747C61.4111 146.063 61.7013 145.418 61.8906 144.763C61.953 144.564 61.9686 144.353 61.9361 144.147C61.9037 143.941 61.8241 143.745 61.7036 143.575C61.5716 143.396 61.4006 143.249 61.2035 143.146C61.0064 143.043 60.7884 142.986 60.5661 142.98C60.5211 142.98 60.4761 142.98 60.4318 142.98C59.7475 142.98 59.1671 143.241 58.6053 143.801C57.2862 145.113 56.5351 146.835 56.2333 149.222C55.9625 151.363 56.1161 153.407 56.6903 155.297C57.2645 157.188 58.2654 158.961 59.6753 160.592C60.5637 161.622 60.5785 162.77 59.7156 163.665C59.1771 164.223 58.3267 164.266 58.0792 164.266C57.7534 164.274 57.4307 164.203 57.1388 164.058C56.9673 163.968 56.7935 163.879 56.6204 163.789C55.4115 163.169 54.1615 162.521 53.0938 161.597C49.6797 158.649 47.6809 154.108 47.7399 149.458C47.7973 144.957 49.7255 140.923 53.1714 138.1C54.2663 137.201 55.41 136.113 56.7718 134.673C59.2206 132.086 60.7383 128.606 61.0464 124.876C61.3544 121.146 60.4256 117.467 58.4315 114.521C56.8936 112.25 54.8932 110.501 52.4871 109.323C50.226 108.216 47.7089 107.654 45.0055 107.654C42.5035 107.668 40.0249 108.137 37.6908 109.039C35.5232 109.865 33.5363 111.103 31.8403 112.686C30.2302 114.175 28.8095 115.981 27.495 118.208C24.7451 122.874 23.9095 128.093 24.9399 134.164C25.1983 135.683 25.6716 137.158 26.1729 138.721C26.432 139.527 26.6989 140.359 26.9325 141.195C28.1701 145.624 30.6236 149.781 34.4327 153.902C36.7578 156.411 39.3356 158.673 42.1253 160.653C44.9235 162.629 47.8978 164.343 51.0105 165.774C57.5415 168.795 64.5769 170.573 71.9203 171.06C73.2052 171.145 74.5212 171.188 75.8294 171.188C80.0893 171.188 84.5742 170.728 89.1584 169.819C94.5007 168.761 99.6156 167.206 104.361 165.198C109.244 163.134 113.881 160.531 118.185 157.437C122.895 154.047 127.218 150.15 131.077 145.817C134.838 141.594 138.25 136.846 141.22 131.704C142.86 128.871 144.304 125.929 145.541 122.898C146.77 119.871 147.77 116.756 148.531 113.579C148.985 111.674 149.482 109.427 149.713 107.212C149.827 106.126 148.989 105.542 148.167 105.355C147.909 105.291 147.645 105.255 147.379 105.248C146.944 105.248 146.552 105.337 145.791 106.448C145.558 106.784 145.433 107.33 145.331 107.816C145.176 108.576 145.033 109.363 144.898 110.124C144.742 111.01 144.578 111.926 144.381 112.83C142.854 119.84 140.334 126.098 136.888 131.427C132.684 137.931 126.732 146.155 117.948 152.062C116.886 152.776 115.817 153.536 114.784 154.277C112.566 155.859 110.274 157.496 107.825 158.819C99.3223 163.411 90.3821 165.94 81.254 166.338C80.156 166.386 79.0139 166.409 77.7623 166.409C75.3926 166.409 72.9903 166.323 70.6672 166.24C69.4901 166.199 68.2726 166.155 67.0792 166.124C66.6913 166.113 65.5134 166.082 65.0424 165.156C64.5714 164.231 65.2302 163.282 65.4459 162.969C66.5601 161.351 67.6581 159.986 68.8018 158.794C73.3884 154.017 78.9983 151.363 85.4766 150.907C88.5252 150.692 91.6204 150.692 94.614 150.692C95.4264 150.692 96.266 150.692 97.09 150.687C101.147 150.665 104.794 150.567 108.357 149.571C114.94 147.733 120.119 144.81 124.186 140.637C124.539 140.268 124.813 139.832 124.991 139.354C125.086 139.096 125.083 138.879 124.983 138.71C124.865 138.509 124.604 138.362 124.267 138.309C124.167 138.293 124.065 138.284 123.964 138.284C123.541 138.284 123.143 138.433 122.466 139.174C117.301 144.828 111.055 148.091 103.903 148.873C102.164 149.058 100.416 149.147 98.6675 149.14C95.2464 149.14 91.8245 148.844 88.5144 148.558C87.231 148.447 86.0485 148.393 84.9001 148.393C82.5335 148.393 80.416 148.626 78.4257 149.102C76.2858 149.606 74.2386 150.444 72.3595 151.585C72.1993 151.678 72.0294 151.753 71.8528 151.81C71.8155 151.823 71.7798 151.834 71.7558 151.845C71.5553 151.925 71.3354 151.943 71.1242 151.898C70.913 151.853 70.7202 151.745 70.5702 151.59C70.4203 151.434 70.3202 151.238 70.2826 151.025C70.245 150.812 70.2716 150.593 70.3591 150.396C70.744 149.504 71.2597 148.674 71.8892 147.935C72.4254 147.314 72.9849 146.699 73.5257 146.107C74.3513 145.205 75.2056 144.271 75.9582 143.314C77.649 141.157 79.4499 139.407 81.4627 137.965C88.841 132.68 96.4149 130.111 104.615 130.111C105.25 130.111 105.898 130.126 106.539 130.158C108.676 130.264 110.605 130.313 112.436 130.313C114.35 130.313 116.116 130.258 117.835 130.144C120.109 130.005 122.347 129.501 124.461 128.65C123.211 128.805 121.952 128.885 120.692 128.888C117.887 128.888 115.289 128.473 112.751 127.618C112.545 127.55 112.363 127.421 112.231 127.248C112.098 127.075 112.021 126.866 112.009 126.648C111.997 126.431 112.05 126.214 112.162 126.028C112.274 125.841 112.44 125.692 112.638 125.601C113.264 125.308 113.88 125.016 114.471 124.733C115.759 124.117 116.976 123.537 118.234 122.998C121.839 121.453 125.254 119.498 128.41 117.17ZM37.7187 140.621C37.7094 142.204 37.7117 143.79 37.7141 145.469C37.7141 146.245 37.7141 147.045 37.7141 147.875C37.7142 148.106 37.6409 148.33 37.5048 148.516C37.3687 148.703 37.1769 148.841 36.9571 148.911C36.7373 148.98 36.501 148.979 36.2823 148.905C36.0637 148.832 35.8741 148.691 35.7409 148.503C35.3816 147.994 35.0293 147.509 34.6887 147.04C33.9648 146.043 33.2812 145.1 32.6519 144.112C29.3883 138.976 27.9916 133.918 28.3843 128.647C28.9678 120.741 33.8259 114.362 40.7596 112.398C41.9504 112.056 43.1829 111.879 44.422 111.874C47.1378 111.874 49.7162 112.757 52.0898 114.5C52.4514 114.766 52.7315 115.088 53.0031 115.399C53.1241 115.538 53.249 115.681 53.3848 115.825C53.5057 115.953 53.5939 116.108 53.6417 116.277C53.6896 116.446 53.6957 116.624 53.6595 116.796C53.6233 116.968 53.546 117.129 53.4341 117.264C53.3222 117.4 53.1791 117.506 53.017 117.574C52.6717 117.718 52.3451 117.852 52.03 117.981C51.4093 118.235 50.8211 118.475 50.2656 118.732C47.4582 120.035 45.0932 121.857 43.2364 124.148C41.4766 126.321 40.1008 129 39.1457 132.115C38.2014 135.195 37.735 137.978 37.7187 140.621ZM44.7107 154.993C44.4722 155.133 44.189 155.178 43.9189 155.117C43.6487 155.056 43.4121 154.894 43.2573 154.664C41.0847 151.443 40.4236 147.886 40.0605 144.831C39.3707 139.031 39.8766 134.454 41.6527 130.429C44.1272 124.822 47.6095 121.181 52.2985 119.3C52.8595 119.075 53.4127 118.897 53.9978 118.708C54.2577 118.625 54.527 118.538 54.7962 118.447C55.0597 118.358 55.3473 118.373 55.5998 118.49C55.8523 118.606 56.0504 118.815 56.1533 119.074C57.7921 123.186 57.3948 126.856 54.9654 129.982C53.7239 131.584 52.297 133.048 50.9181 134.464C50.226 135.174 49.5106 135.908 48.8347 136.644C45.8156 139.932 44.363 143.433 44.3941 147.346C44.3941 147.75 44.3941 148.155 44.3863 148.547C44.3615 150.336 44.3382 152.026 45.125 153.562C45.2513 153.808 45.2787 154.093 45.2017 154.359C45.1247 154.625 44.949 154.852 44.7107 154.993ZM104.245 117.61L103.857 118.01C103.112 118.781 102.431 119.439 101.637 120.2C100.212 121.565 98.5984 123.113 96.9542 124.574C96.7556 124.751 96.5368 124.934 96.2861 125.135C96.1767 125.223 94.1345 126.934 94.0002 126.974C92.4282 127.44 94.0002 126.974 92.339 127.497C88.1319 128.816 84.3313 130.66 81.0422 132.964C79.6377 133.948 78.2488 134.959 76.7745 136.03C76.0891 136.529 75.3804 137.044 74.6485 137.574C74.4658 137.706 74.2465 137.778 74.0211 137.78C73.7957 137.782 73.5753 137.714 73.3904 137.585C73.2056 137.456 73.0654 137.272 72.9894 137.06C72.9134 136.848 72.9053 136.617 72.9662 136.4C73.0896 135.96 73.2076 135.536 73.3216 135.125C73.5629 134.255 73.7872 133.434 74.0316 132.615C74.9038 129.654 76.5922 127.175 78.2216 124.778L78.4808 124.397C81.3704 120.14 84.3655 116.644 87.6368 113.711C90.6663 110.986 93.9652 108.575 97.4826 106.517C99.0632 105.597 100.61 104.513 102.106 103.464C102.763 103.003 103.442 102.528 104.119 102.067C104.285 101.954 104.458 101.823 104.697 101.641C104.841 101.532 105.008 101.408 105.205 101.253C105.379 101.124 105.587 101.049 105.803 101.038C106.019 101.028 106.233 101.082 106.418 101.194C106.603 101.306 106.751 101.471 106.841 101.667C106.932 101.863 106.962 102.082 106.928 102.296C106.883 102.574 106.845 102.821 106.809 103.048C106.741 103.487 106.682 103.866 106.611 104.243C106.502 104.832 106.387 105.428 106.275 106.006C106.064 107.103 105.847 108.23 105.655 109.351C106.15 108.563 106.619 107.757 106.878 106.946C108.702 101.223 113.416 96.1225 117.049 92.8512C118.057 91.9418 119.101 91.0432 120.11 90.1742C121.817 88.6999 123.59 87.1768 125.213 85.5838C126.008 84.8032 126.066 84.3563 126.659 83.5718C126.811 83.3701 127.029 83.2277 127.274 83.1689C127.52 83.1101 127.778 83.1387 128.005 83.2498C128.47 83.4826 128.366 83.8876 128.23 84.3904C128.122 84.8372 127.989 85.2775 127.832 85.7095C127.016 88.1397 125.11 90.8803 123.732 93.3183C123.009 94.5947 122.236 95.861 121.489 97.0847C121.197 97.5626 120.896 98.0569 120.602 98.5426L120.453 98.7894C120.155 99.286 119.847 99.7981 119.51 100.297C119.382 100.486 119.255 100.676 119.127 100.865C118.555 101.719 117.963 102.596 117.312 103.431C116.697 104.219 116.025 104.956 115.373 105.67C115.21 105.849 115.047 106.027 114.886 106.207C113.536 107.705 112.164 109.205 111 110.474C110.069 111.491 109.279 112.345 108.464 113.201C107.216 114.532 105.833 115.971 104.245 117.61ZM109.961 121.966C109.716 122.057 109.445 122.057 109.2 121.965C108.955 121.873 108.751 121.696 108.626 121.466C108.501 121.235 108.464 120.967 108.521 120.712C108.578 120.456 108.725 120.23 108.936 120.074C109.043 119.995 109.143 119.908 109.236 119.813C110.147 118.866 111.331 117.608 112.431 116.265C113.412 115.065 114.354 113.782 115.266 112.54C115.425 112.326 115.583 112.112 115.74 111.896C116.49 110.881 117.234 109.826 117.953 108.807L118.375 108.209L118.392 108.184C118.718 107.725 119.024 107.291 119.29 106.84C120.235 105.24 121.249 103.516 122.252 101.749C122.988 100.453 123.571 99.3775 124.076 98.3642C125.199 96.1264 126.293 93.8638 127.122 92.1389C127.277 91.8091 127.442 91.4754 127.6 91.1534C128.164 89.9957 128.747 88.7993 129.224 87.6051C130.305 84.8955 131.041 82.2046 131.409 79.6075C131.495 79.0077 131.541 78.4033 131.589 77.7632C131.597 77.6576 131.605 77.5521 131.614 77.4466C131.628 77.2512 131.695 77.0635 131.808 76.9034L131.846 76.8491L135.373 71.0242C137.323 67.2749 138.469 62.8102 138.779 57.7557C138.779 57.7495 138.779 57.7433 138.779 57.7371C138.907 56.1022 138.883 54.7436 138.856 53.305C138.846 52.7323 138.836 52.1411 138.836 51.5296C138.836 51.3204 138.897 51.1157 139.01 50.94C139.124 50.7644 139.286 50.6253 139.477 50.5396L139.624 50.4728L139.771 50.4069C139.985 50.3106 140.225 50.2864 140.455 50.3381C140.684 50.3897 140.89 50.5143 141.043 50.6932C141.207 50.8856 141.377 51.0742 141.556 51.2744C141.977 51.7269 142.372 52.2036 142.737 52.7021C146.927 58.6271 149.073 64.6274 149.299 71.0451C149.552 78.1659 148.024 85.0321 144.76 91.4522C141.293 98.2711 136.237 103.796 132.219 107.848C126.168 113.957 118.677 118.705 109.961 121.966Z" fill="#57684B"/>
<path d="M43.5485 69.2178C43.1714 72.3347 42.9123 75.4648 42.5972 78.5887C42.4195 80.3462 42.2318 82.1014 42.037 83.9675C41.6894 83.9287 41.5032 83.9341 41.3332 83.8845C38.2567 82.9906 35.1879 82.0688 32.1051 81.1974C30.4415 80.7272 28.774 80.2228 27.0739 79.9559C25.6159 79.7231 24.6895 80.4339 24.2317 81.7165C23.711 83.1745 23.9911 84.2391 25.228 85.1221C25.7356 85.4887 26.2992 85.7707 26.897 85.957C32.1516 87.5251 37.4016 89.108 42.6834 90.5971C45.6645 91.4374 47.3281 90.0694 47.5306 86.9541C47.713 84.1537 48.0303 81.3619 48.3143 78.5685C48.6107 75.665 48.963 72.7677 49.2454 69.8626C49.4006 68.2417 48.7915 67.0692 47.6253 66.5036C45.6854 65.5662 43.8488 66.7371 43.5485 69.2178Z" fill="#88C0D0"/>
<path d="M94.6445 39.5896C96.4556 40.9754 98.5149 41.5294 100.837 41.0165C104.181 40.2786 106.69 38.4373 107.841 35.0814C108.19 34.0634 108.171 33.0097 107.34 32.1833C106.494 31.3422 105.432 31.2522 104.351 31.5998C103.73 31.7977 103.151 32.136 102.755 32.3183C102.634 30.7533 102.71 29.1549 102.345 27.6627C101.913 25.8983 100.841 24.4535 98.9874 23.8203C97.7459 23.3974 96.7892 23.856 96.596 25.1479C96.4757 25.9487 96.7062 26.8061 96.8047 27.6348C96.9785 29.0858 97.4131 30.5523 97.306 31.98C97.1004 34.7183 96.2321 37.3068 94.6445 39.5896Z" fill="#88C0D0"/>
<path d="M124.99 159.093C122.5 159.147 120.8 160.536 120.908 163.013C121.004 164.901 121.479 166.751 122.305 168.452C124.028 171.976 126.798 174.333 130.129 174.687C134.21 174.731 136.664 172.36 136.402 169.385C135.937 164.095 130.264 158.98 124.99 159.093Z" fill="#88C0D0"/>
<path d="M29.0573 159.299C23.0485 157.952 16.7882 163.334 16.7091 169.929C16.6703 173.172 18.4883 174.863 21.8054 174.671C27.417 174.344 32.7872 168.068 32.1804 162.523C31.9779 160.675 30.8388 159.699 29.0573 159.299Z" fill="#88C0D0"/>
<path d="M114.784 154.279C115.817 153.541 116.886 152.778 117.948 152.063C126.732 146.156 132.685 137.933 136.889 131.428C140.335 126.098 142.855 119.841 144.381 112.831C144.578 111.928 144.741 111.012 144.898 110.126C145.034 109.365 145.173 108.574 145.332 107.817C145.342 107.769 145.353 107.719 145.363 107.669C145.35 107.281 145.648 106.21 145.851 104.533C145.971 103.551 146.13 102.266 146.317 100.603C146.608 98.0119 146.741 96.6455 146.851 95.7439C146.696 96.0263 146.547 96.3095 146.391 96.5928C144.994 99.1262 143.221 101.726 140.979 104.541C140.626 104.983 140.252 105.443 139.867 105.909C139.036 106.912 138.135 107.964 137.03 109.22C134.447 112.168 131.557 114.833 128.41 117.17C125.254 119.499 121.84 121.456 118.234 123.002C116.977 123.545 115.759 124.121 114.471 124.737C113.878 125.02 113.265 125.312 112.638 125.605C112.441 125.696 112.275 125.845 112.163 126.032C112.05 126.218 111.997 126.435 112.009 126.652C112.021 126.87 112.099 127.079 112.231 127.252C112.363 127.425 112.545 127.554 112.752 127.622C115.289 128.476 117.887 128.892 120.693 128.892C121.953 128.887 123.211 128.806 124.461 128.65C122.348 129.499 120.112 130.002 117.839 130.14C116.121 130.254 114.355 130.309 112.441 130.309C110.609 130.309 108.68 130.258 106.544 130.154C105.903 130.122 105.255 130.107 104.62 130.107C96.4199 130.107 88.846 132.676 81.4676 137.962C79.4502 139.403 77.6539 141.153 75.9632 143.31C75.2105 144.271 74.3562 145.205 73.5306 146.103C72.9875 146.696 72.4304 147.307 71.8942 147.931C71.2646 148.671 70.7489 149.5 70.364 150.392C70.2765 150.59 70.2499 150.809 70.2875 151.021C70.3251 151.234 70.4253 151.431 70.5752 151.586C70.7251 151.742 70.9179 151.849 71.1291 151.894C71.3403 151.94 71.5602 151.921 71.7607 151.841C71.7848 151.831 71.8205 151.819 71.8577 151.806C72.0343 151.75 72.2043 151.674 72.3644 151.581C74.2436 150.44 76.2907 149.602 78.4306 149.098C80.4209 148.621 82.5384 148.389 84.905 148.389C86.0534 148.389 87.2328 148.443 88.5193 148.554C91.8294 148.84 95.2513 149.137 98.6724 149.137C100.421 149.143 102.169 149.054 103.908 148.869C111.06 148.088 117.306 144.825 122.471 139.17C123.148 138.429 123.546 138.28 123.969 138.28C124.07 138.28 124.172 138.289 124.272 138.305C124.609 138.358 124.87 138.505 124.988 138.706C125.088 138.875 125.091 139.094 124.996 139.35C124.817 139.828 124.543 140.265 124.19 140.633C120.122 144.806 114.944 147.729 108.361 149.567C104.799 150.563 101.152 150.661 97.0949 150.683C96.2709 150.688 95.4313 150.688 94.6189 150.688C91.6254 150.688 88.5302 150.688 85.4815 150.903C79.0033 151.36 73.3933 154.013 68.8067 158.79C67.663 159.982 66.5651 161.351 65.4508 162.965C65.2351 163.276 64.5787 164.231 65.0473 165.153C65.516 166.074 66.697 166.109 67.0842 166.12C68.2776 166.151 69.495 166.198 70.6721 166.237C72.9952 166.32 75.3975 166.405 77.7672 166.405C79.0188 166.405 80.161 166.382 81.2589 166.334C90.387 165.936 99.3273 163.407 107.83 158.815C110.274 157.497 112.566 155.861 114.784 154.279Z" fill="#5E81AC"/>
<path d="M11.3371 91.2644C11.3182 91.05 11.2359 90.846 11.1009 90.6783C10.9658 90.5107 10.7839 90.3869 10.5784 90.3228C10.3729 90.2587 10.1529 90.2571 9.94649 90.3183C9.74005 90.3794 9.55644 90.5005 9.41896 90.6662C7.64751 92.8023 6.94917 95.1666 6.27411 97.4587C6.13677 97.9243 5.99477 98.4038 5.84812 98.8663C4.96588 101.645 4.76647 104.618 5.21961 108.224C5.7682 112.581 6.96546 117.032 8.87969 121.832C9.16911 122.557 9.51285 123.25 9.84495 123.92C9.9916 124.215 10.1429 124.521 10.2849 124.819C10.3868 125.033 10.5562 125.209 10.7671 125.318C10.9781 125.427 11.219 125.464 11.453 125.423C11.687 125.382 11.9011 125.266 12.0627 125.092C12.2242 124.918 12.3242 124.695 12.3473 124.459C12.6352 121.52 13.1737 118.945 13.9923 116.588C14.8499 114.076 16.1099 111.72 17.723 109.611C17.8724 109.416 17.9513 109.176 17.9468 108.931C17.9423 108.685 17.8546 108.448 17.6982 108.259C15.7521 105.903 14.2887 103.315 13.2249 100.344C12.255 97.6426 11.6405 94.6708 11.3371 91.2644Z" fill="#88C0D0"/>
<path d="M73.3949 137.585C73.5799 137.714 73.8004 137.783 74.0259 137.781C74.2515 137.779 74.4708 137.707 74.6535 137.574C75.3865 137.045 76.0952 136.53 76.7795 136.03C78.2538 134.96 79.6396 133.948 81.0472 132.964C84.3363 130.66 88.1369 128.82 92.344 127.497C94.0052 126.974 92.4332 127.443 94.0052 126.974C94.1395 126.934 96.1778 125.223 96.2911 125.135C96.5418 124.934 96.7567 124.747 96.9592 124.574C98.6034 123.113 100.218 121.565 101.642 120.2C102.436 119.439 103.116 118.781 103.862 118.01L104.25 117.61C105.838 115.971 107.221 114.532 108.478 113.21C109.293 112.357 110.081 111.503 111.014 110.484C112.178 109.213 113.549 107.713 114.9 106.216C115.061 106.037 115.224 105.858 115.386 105.68C116.036 104.966 116.705 104.228 117.326 103.44C117.978 102.605 118.567 101.726 119.141 100.874C119.268 100.685 119.395 100.495 119.523 100.306C119.861 99.8075 120.169 99.2977 120.467 98.7988L120.616 98.552C120.909 98.0663 121.211 97.572 121.503 97.094C122.25 95.8704 123.023 94.6041 123.745 93.3276C125.123 90.8897 127.03 88.1491 127.845 85.7188C128.002 85.2869 128.135 84.8465 128.243 84.3998C128.38 83.897 128.486 83.488 128.018 83.2591C127.791 83.1481 127.533 83.1195 127.288 83.1783C127.042 83.237 126.825 83.3795 126.673 83.5812C126.082 84.3656 126.022 84.8126 125.226 85.5931C123.604 87.1861 121.835 88.7101 120.124 90.1836C119.115 91.0526 118.071 91.9511 117.062 92.8605C113.429 96.1319 108.715 101.233 106.891 106.955C106.633 107.766 106.163 108.572 105.668 109.361C105.859 108.24 106.076 107.111 106.289 106.015C106.401 105.438 106.516 104.841 106.625 104.252C106.696 103.876 106.755 103.496 106.823 103.057C106.859 102.83 106.9 102.584 106.942 102.305C106.976 102.092 106.946 101.873 106.855 101.676C106.764 101.48 106.617 101.315 106.432 101.203C106.247 101.091 106.032 101.037 105.816 101.048C105.6 101.058 105.392 101.133 105.219 101.262C105.018 101.412 104.854 101.537 104.711 101.65C104.472 101.833 104.299 101.961 104.133 102.076C103.455 102.536 102.776 103.007 102.12 103.473C100.624 104.522 99.0767 105.606 97.4962 106.526C93.9788 108.584 90.6799 110.995 87.6503 113.721C84.3782 116.654 81.3831 120.149 78.4943 124.406L78.2352 124.788C76.6057 127.185 74.9188 129.665 74.0451 132.625C73.8038 133.443 73.5796 134.264 73.3352 135.134C73.2211 135.545 73.1024 135.969 72.9798 136.41C72.9199 136.625 72.9277 136.853 73.0019 137.063C73.0762 137.273 73.2134 137.456 73.3949 137.585Z" fill="#709353"/>
<path d="M72.9786 5.66971C72.7831 5.50512 72.5358 5.41473 72.2803 5.41443C72.2362 5.41457 72.1921 5.41742 72.1483 5.42296C71.8385 5.42999 71.5428 5.55388 71.3204 5.76981C71.1358 5.9537 70.9503 6.13605 70.7656 6.31917C70.2147 6.86232 69.646 7.42487 69.1028 8.00992C63.0893 14.4921 59.8956 21.4064 59.3393 29.1456C58.9513 34.5243 60.1292 39.4849 62.8372 43.8883C65.1525 47.6578 68.0755 50.4441 71.7751 52.4072C71.9406 52.4952 72.1261 52.5388 72.3135 52.5339C72.5008 52.529 72.6837 52.4757 72.8444 52.3791C73.0051 52.2826 73.138 52.1461 73.2303 51.983C73.3227 51.8199 73.3712 51.6356 73.3712 51.4482C73.3712 35.9986 73.3712 21.4049 73.3712 6.50073C73.3705 6.34194 73.335 6.18523 73.2671 6.04165C73.1993 5.89807 73.1008 5.77111 72.9786 5.66971Z" fill="#A3BE8C"/>
<path d="M127.122 92.1413C126.293 93.8646 125.199 96.1288 124.076 98.3666C123.567 99.38 122.99 100.455 122.252 101.751C121.249 103.519 120.235 105.243 119.29 106.843C119.024 107.294 118.718 107.727 118.393 108.187L118.375 108.212L117.953 108.81C117.234 109.829 116.49 110.883 115.74 111.899C115.582 112.114 115.424 112.329 115.266 112.543C114.355 113.784 113.412 115.065 112.431 116.267C111.334 117.611 110.148 118.868 109.236 119.815C109.144 119.91 109.043 119.998 108.936 120.076C108.726 120.232 108.578 120.458 108.521 120.714C108.464 120.97 108.502 121.238 108.626 121.468C108.751 121.698 108.955 121.876 109.2 121.968C109.446 122.06 109.716 122.06 109.961 121.968C118.677 118.709 126.167 113.959 132.223 107.852C136.241 103.8 141.301 98.2758 144.764 91.4569C148.028 85.0368 149.556 78.1706 149.303 71.0499C149.077 64.6321 146.93 58.635 142.741 52.7068C142.376 52.2083 141.981 51.7316 141.56 51.2791C141.381 51.0789 141.211 50.8911 141.047 50.6979C140.894 50.519 140.688 50.3944 140.459 50.3428C140.229 50.2912 139.989 50.3153 139.775 50.4116L139.628 50.4776L139.481 50.5443C139.29 50.6301 139.128 50.7692 139.014 50.9448C138.901 51.1204 138.84 51.3252 138.84 51.5344C138.84 52.1458 138.85 52.7371 138.86 53.3097C138.885 54.7483 138.908 56.1031 138.783 57.7418C138.783 57.7481 138.783 57.7543 138.783 57.7605C138.472 62.8165 137.327 67.2812 135.377 71.0289L131.85 76.8539L131.812 76.9082C131.699 77.0682 131.632 77.256 131.618 77.4513C131.609 77.5568 131.601 77.6624 131.593 77.7679C131.545 78.408 131.499 79.0094 131.414 79.6123C131.045 82.2093 130.309 84.9003 129.228 87.6098C128.751 88.804 128.168 90.0005 127.604 91.1582C127.442 91.4779 127.28 91.8115 127.122 92.1413Z" fill="#A3BE8C"/>
<path d="M50.2647 118.731C50.8203 118.473 51.4076 118.234 52.0292 117.979C52.3442 117.85 52.6708 117.717 53.0161 117.572C53.1783 117.505 53.3216 117.398 53.4336 117.263C53.5457 117.127 53.6232 116.967 53.6595 116.795C53.6959 116.623 53.6899 116.445 53.6422 116.275C53.5944 116.106 53.5064 115.951 53.3855 115.823C53.2497 115.68 53.1248 115.536 53.0037 115.397C52.7322 115.087 52.452 114.764 52.0905 114.499C49.7169 112.755 47.1369 111.872 44.4227 111.872C43.1836 111.878 41.9511 112.054 40.7603 112.397C33.8265 114.361 28.9661 120.739 28.3849 128.646C27.997 133.917 29.3936 138.975 32.6526 144.11C33.2818 145.099 33.9654 146.041 34.6894 147.038C35.03 147.504 35.3823 147.993 35.7416 148.501C35.8419 148.643 35.9748 148.759 36.1291 148.839C36.2834 148.919 36.4546 148.96 36.6284 148.96C36.9165 148.96 37.1929 148.846 37.3966 148.642C37.6003 148.439 37.7147 148.162 37.7147 147.874C37.7147 147.046 37.7147 146.245 37.7147 145.469C37.7147 143.79 37.7101 142.204 37.7194 140.621C37.7357 137.977 38.202 135.194 39.1456 132.113C40.1007 128.997 41.4734 126.317 43.2363 124.146C45.0923 121.856 47.4574 120.037 50.2647 118.731Z" fill="#88C0D0"/>
<path d="M44.3852 148.547C44.3906 148.159 44.3961 147.75 44.393 147.347C44.3619 143.433 45.8145 139.932 48.8336 136.644C49.5095 135.908 50.2249 135.17 50.917 134.464C52.2958 133.048 53.7212 131.584 54.9643 129.982C57.3914 126.856 57.791 123.186 56.1522 119.074C56.0493 118.815 55.8512 118.606 55.5987 118.49C55.3462 118.373 55.0586 118.358 54.7951 118.447C54.5259 118.538 54.2566 118.625 53.9967 118.708C53.4116 118.897 52.8584 119.075 52.2974 119.3C47.6084 121.181 44.1261 124.822 41.6516 130.429C39.8755 134.454 39.3696 139.031 40.0594 144.831C40.4225 147.886 41.0867 151.443 43.2562 154.664C43.4109 154.894 43.6475 155.056 43.9177 155.117C44.1879 155.179 44.4713 155.134 44.7098 154.993C44.9484 154.853 45.1242 154.626 45.2011 154.36C45.2781 154.094 45.2505 153.808 45.1239 153.562C44.3387 152.026 44.3619 150.336 44.3852 148.547Z" fill="#5E81AC"/>
<path d="M120.487 36.2306C120.298 35.4811 120.105 34.7176 119.909 33.9401C119.857 33.7343 119.746 33.5482 119.59 33.4046C119.434 33.2611 119.239 33.1664 119.03 33.1323C118.973 33.1237 118.916 33.1193 118.859 33.1191C118.676 33.1192 118.495 33.1656 118.335 33.2541C118.174 33.3425 118.039 33.4701 117.941 33.6251C117.878 33.7244 117.83 33.7958 117.791 33.8539C117.691 33.99 117.61 34.1391 117.551 34.297C117.45 34.5771 117.336 34.8945 117.248 35.2281C116.162 39.4143 113.887 42.7849 110.497 45.2462C108.519 46.6809 106.428 48.052 104.406 49.378C102.416 50.6832 100.359 52.0325 98.3883 53.454C96.59 54.7536 95.0177 56.3401 93.7342 58.15C91.9771 60.6384 90.722 63.4456 90.0392 66.4144C89.8196 67.368 89.6365 68.3356 89.4596 69.2706C89.382 69.6873 89.2998 70.1187 89.2167 70.5393C89.1697 70.7782 89.2043 71.026 89.315 71.2428C89.4257 71.4597 89.606 71.6331 89.827 71.7352C90.0481 71.8373 90.297 71.8622 90.5339 71.8059C90.7708 71.7496 90.9819 71.6153 91.1333 71.4246C92.799 69.3137 94.7929 67.484 97.0389 66.0055C100.863 63.4992 105.221 62.7567 109.723 62.1608C113.257 61.6952 116.023 60.9193 118.424 59.736C119.137 59.3845 119.988 58.6233 120.286 57.7185C121.88 52.848 123.294 47.044 121.689 40.9266C121.28 39.384 120.892 37.8523 120.487 36.2306Z" fill="#A3BE8C"/>
<path d="M116.587 62.7675C116.445 62.7677 116.304 62.7954 116.173 62.8489C115.454 62.9576 114.725 63.0693 114.018 63.1772C112.24 63.4487 110.401 63.7296 108.587 63.9857L108.414 64.0105C105.071 64.4815 101.615 64.9696 98.5601 66.9381C91.6543 71.3826 88.0935 78.2349 87.9709 87.3048C87.9655 87.6819 88.0578 88.0078 88.1463 88.322C88.1835 88.4539 88.2239 88.5897 88.2549 88.7356C88.2947 88.9105 88.3771 89.0728 88.4949 89.2081C88.6126 89.3434 88.762 89.4474 88.9298 89.5108C89.0975 89.5743 89.2784 89.5953 89.4562 89.5718C89.634 89.5484 89.8032 89.4813 89.9488 89.3765C90.2933 89.129 90.6223 88.8923 90.942 88.6642C91.6139 88.1824 92.2494 87.7277 92.8764 87.2675C93.4599 86.8385 94.0348 86.3876 94.5912 85.9485C95.7753 85.0173 96.8934 84.1429 98.1147 83.4375C101.547 81.455 104.85 79.0287 108.507 75.8016C111.295 73.3419 113.374 70.3475 115.385 67.4525C116.056 66.4873 116.749 65.4902 117.452 64.5358C117.576 64.3686 117.651 64.1706 117.67 63.9636C117.688 63.7566 117.65 63.5484 117.558 63.3618C117.467 63.1826 117.328 63.0321 117.156 62.9271C116.985 62.8222 116.788 62.7669 116.587 62.7675Z" fill="#709353"/>
<path d="M82.6561 43.5865C84.6409 40.8001 85.825 37.5009 86.3805 33.203C86.8639 29.4785 86.6715 25.6431 85.8079 21.8014C85.1406 18.8335 83.7626 15.8826 81.5946 12.7812C80.8862 11.7671 80.1863 10.7576 79.4453 9.68911L78.3946 8.17527C78.2626 7.98511 78.0733 7.8421 77.8543 7.7671C77.6353 7.69209 77.398 7.68901 77.1771 7.75831C76.9563 7.8276 76.7633 7.96565 76.6264 8.15232C76.4895 8.33899 76.4158 8.56452 76.416 8.79602V47.0216C76.416 47.2335 76.478 47.4409 76.5944 47.618C76.7107 47.7952 76.8764 47.9344 77.0709 48.0186L77.3223 48.1273L77.5737 48.2359C77.7833 48.3263 78.016 48.3485 78.2388 48.2992C78.4617 48.2499 78.6634 48.1316 78.8152 47.9612C79.2032 47.5298 79.6074 47.0953 80.0024 46.6755C80.9157 45.7095 81.8576 44.7077 82.6561 43.5865Z" fill="#709353"/>
<path d="M45.8786 43.6345C44.9126 40.3756 44.5719 36.9118 44.8699 33.3495C44.8842 33.1756 44.8564 33.0009 44.7889 32.84C44.7214 32.6791 44.6161 32.5369 44.482 32.4253C44.3479 32.3137 44.1889 32.2361 44.0184 32.199C43.848 32.1618 43.6711 32.1663 43.5027 32.212L43.1776 32.2989C42.9448 32.361 42.7275 32.4192 42.5041 32.4836C39.031 33.4768 36.1057 35.5764 33.5219 37.4286C26.9179 42.1672 21.7797 47.0564 17.8162 52.3754C15.2199 55.8593 12.5461 59.6133 10.8778 63.8344C9.29182 67.8475 8.07593 72.0593 6.90117 76.1275C6.53027 77.4124 6.14696 78.74 5.75822 80.039C4.71925 83.5113 4.34059 86.4877 4.56716 89.4045C4.58499 89.6432 4.68118 89.8693 4.84077 90.0478C5.00037 90.2262 5.21443 90.3469 5.4497 90.3912C5.68497 90.4354 5.92827 90.4007 6.14177 90.2924C6.35528 90.1841 6.52705 90.0084 6.63037 89.7924C6.80495 89.427 6.97799 89.0561 7.14481 88.6968C7.50329 87.9255 7.87419 87.1279 8.27457 86.3799C8.73237 85.5263 9.23285 84.6596 9.71703 83.824C10.6481 82.2154 11.6111 80.5526 12.3637 78.7982C13.4234 76.3192 14.6955 73.9365 16.1658 71.6767C17.6366 69.4265 19.31 67.3155 21.1651 65.3699C24.5389 61.8325 28.2727 59.1361 32.261 57.3538C36.3494 55.528 40.8467 54.6008 45.628 54.5984H49.6807C49.8815 54.5984 50.0784 54.5427 50.2495 54.4375C50.4206 54.3324 50.5591 54.1818 50.6498 54.0026C50.7405 53.8234 50.7797 53.6226 50.7631 53.4225C50.7466 53.2223 50.6748 53.0307 50.5559 52.8689C48.3957 49.9273 46.8221 46.8213 45.8786 43.6345Z" fill="#A3BE8C"/>
<path d="M193.74 140.03C194.02 137.417 195.863 136.11 199.27 136.11C201.09 136.11 202.443 136.25 203.33 136.53C204.217 136.81 204.823 137.3 205.15 138C205.523 138.7 205.733 139.33 205.78 139.89C205.873 140.403 205.92 141.197 205.92 142.27V166.77C205.92 167.843 205.873 168.66 205.78 169.22C205.733 169.733 205.547 170.34 205.22 171.04C204.567 172.253 202.957 172.86 200.39 172.86C197.87 172.86 196.167 172.557 195.28 171.95C194.44 171.297 193.95 170.363 193.81 169.15C192.083 171.623 189.19 172.86 185.13 172.86C181.117 172.86 177.383 171.017 173.93 167.33C170.477 163.643 168.75 159.373 168.75 154.52C168.75 149.62 170.477 145.35 173.93 141.71C177.43 138.023 181.257 136.18 185.41 136.18C186.997 136.18 188.443 136.46 189.75 137.02C191.057 137.58 191.967 138.117 192.48 138.63C192.993 139.097 193.413 139.563 193.74 140.03ZM181 154.59C181 156.13 181.607 157.53 182.82 158.79C184.033 160.003 185.503 160.61 187.23 160.61C188.957 160.61 190.38 159.98 191.5 158.72C192.667 157.46 193.25 156.083 193.25 154.59C193.25 153.05 192.69 151.627 191.57 150.32C190.497 149.013 189.027 148.36 187.16 148.36C185.34 148.36 183.847 149.013 182.68 150.32C181.56 151.627 181 153.05 181 154.59ZM215.279 169.71C214.393 169.15 213.949 168.263 213.949 167.05C213.949 165.837 214.836 163.993 216.609 161.52C217.123 160.727 217.939 160.33 219.059 160.33C220.226 160.33 221.789 160.913 223.749 162.08C225.709 163.2 227.483 163.76 229.069 163.76C231.916 163.76 233.339 163.2 233.339 162.08C233.339 161.193 231.776 160.54 228.649 160.12C225.709 159.7 222.793 158.603 219.899 156.83C218.546 155.99 217.426 154.683 216.539 152.91C215.653 151.09 215.209 148.943 215.209 146.47C215.209 139.097 220.273 135.41 230.399 135.41C233.713 135.41 237.119 136.203 240.619 137.79C242.253 138.537 243.069 139.47 243.069 140.59C243.069 141.71 242.556 143.087 241.529 144.72C240.503 146.353 239.453 147.17 238.379 147.17C237.819 147.17 236.769 146.82 235.229 146.12C233.736 145.42 232.103 145.07 230.329 145.07C227.576 145.07 226.199 145.583 226.199 146.61C226.199 148.01 227.786 148.92 230.959 149.34C234.039 149.667 237.026 150.553 239.919 152C241.273 152.653 242.393 153.797 243.279 155.43C244.213 157.017 244.679 159.023 244.679 161.45C244.679 163.877 244.213 165.953 243.279 167.68C242.393 169.36 241.133 170.62 239.499 171.46C236.513 172.907 232.756 173.63 228.229 173.63C223.749 173.63 219.433 172.323 215.279 169.71ZM253.027 169.71C252.141 169.15 251.697 168.263 251.697 167.05C251.697 165.837 252.584 163.993 254.357 161.52C254.871 160.727 255.687 160.33 256.807 160.33C257.974 160.33 259.537 160.913 261.497 162.08C263.457 163.2 265.231 163.76 266.817 163.76C269.664 163.76 271.087 163.2 271.087 162.08C271.087 161.193 269.524 160.54 266.397 160.12C263.457 159.7 260.541 158.603 257.647 156.83C256.294 155.99 255.174 154.683 254.287 152.91C253.401 151.09 252.957 148.943 252.957 146.47C252.957 139.097 258.021 135.41 268.147 135.41C271.461 135.41 274.867 136.203 278.367 137.79C280.001 138.537 280.817 139.47 280.817 140.59C280.817 141.71 280.304 143.087 279.277 144.72C278.251 146.353 277.201 147.17 276.127 147.17C275.567 147.17 274.517 146.82 272.977 146.12C271.484 145.42 269.851 145.07 268.077 145.07C265.324 145.07 263.947 145.583 263.947 146.61C263.947 148.01 265.534 148.92 268.707 149.34C271.787 149.667 274.774 150.553 277.667 152C279.021 152.653 280.141 153.797 281.027 155.43C281.961 157.017 282.427 159.023 282.427 161.45C282.427 163.877 281.961 165.953 281.027 167.68C280.141 169.36 278.881 170.62 277.247 171.46C274.261 172.907 270.504 173.63 265.977 173.63C261.497 173.63 257.181 172.323 253.027 169.71ZM326.055 150.18C326.055 153.027 325.332 155.15 323.885 156.55C322.485 157.903 320.922 158.58 319.195 158.58H302.605C302.605 159.887 303.375 160.983 304.915 161.87C306.455 162.757 307.995 163.2 309.535 163.2C312.242 163.2 314.365 162.92 315.905 162.36L316.675 162.08C317.795 161.567 318.729 161.31 319.475 161.31C320.969 161.31 322.252 162.36 323.325 164.46C323.932 165.72 324.235 166.793 324.235 167.68C324.235 171.833 319.265 173.91 309.325 173.91C305.872 173.91 302.792 173.327 300.085 172.16C297.425 170.947 295.349 169.36 293.855 167.4C290.915 163.62 289.445 159.397 289.445 154.73C289.445 148.85 291.335 144.16 295.115 140.66C298.942 137.113 303.702 135.34 309.395 135.34C315.882 135.34 320.642 137.627 323.675 142.2C325.262 144.627 326.055 147.287 326.055 150.18ZM311.285 152.21C313.059 152.21 313.945 151.463 313.945 149.97C313.945 148.897 313.525 148.033 312.685 147.38C311.892 146.727 310.725 146.4 309.185 146.4C307.692 146.4 306.199 147.03 304.705 148.29C303.212 149.503 302.465 150.81 302.465 152.21H311.285ZM354.859 148.5L350.309 148.22V157.88C350.309 159.14 350.495 160.05 350.869 160.61C351.289 161.17 352.035 161.45 353.109 161.45C354.229 161.45 355.069 161.497 355.629 161.59C356.235 161.637 356.865 161.847 357.519 162.22C358.592 162.827 359.129 164.39 359.129 166.91C359.129 169.85 358.475 171.647 357.169 172.3C356.469 172.627 355.839 172.837 355.279 172.93C354.765 172.977 353.995 173 352.969 173C348.115 173 344.429 171.903 341.909 169.71C339.389 167.517 338.129 163.807 338.129 158.58V148.22C337.242 148.36 336.285 148.43 335.259 148.43C334.232 148.43 333.369 148.033 332.669 147.24C332.015 146.447 331.689 145.093 331.689 143.18C331.689 141.267 331.805 139.89 332.039 139.05C332.272 138.163 332.599 137.533 333.019 137.16C333.765 136.553 334.699 136.25 335.819 136.25L338.129 136.53V129.32C338.129 128.247 338.152 127.453 338.199 126.94C338.292 126.427 338.525 125.867 338.899 125.26C339.505 124.093 341.302 123.51 344.289 123.51C347.462 123.51 349.352 124.373 349.959 126.1C350.192 126.847 350.309 128.037 350.309 129.67V136.53C352.362 136.343 353.902 136.25 354.929 136.25C356.002 136.25 356.795 136.297 357.309 136.39C357.869 136.437 358.499 136.647 359.199 137.02C360.412 137.627 361.019 139.423 361.019 142.41C361.019 145.35 360.389 147.147 359.129 147.8C358.429 148.127 357.799 148.337 357.239 148.43C356.725 148.477 355.932 148.5 354.859 148.5ZM368.664 169.71C367.777 169.15 367.334 168.263 367.334 167.05C367.334 165.837 368.221 163.993 369.994 161.52C370.507 160.727 371.324 160.33 372.444 160.33C373.611 160.33 375.174 160.913 377.134 162.08C379.094 163.2 380.867 163.76 382.454 163.76C385.301 163.76 386.724 163.2 386.724 162.08C386.724 161.193 385.161 160.54 382.034 160.12C379.094 159.7 376.177 158.603 373.284 156.83C371.931 155.99 370.811 154.683 369.924 152.91C369.037 151.09 368.594 148.943 368.594 146.47C368.594 139.097 373.657 135.41 383.784 135.41C387.097 135.41 390.504 136.203 394.004 137.79C395.637 138.537 396.454 139.47 396.454 140.59C396.454 141.71 395.941 143.087 394.914 144.72C393.887 146.353 392.837 147.17 391.764 147.17C391.204 147.17 390.154 146.82 388.614 146.12C387.121 145.42 385.487 145.07 383.714 145.07C380.961 145.07 379.584 145.583 379.584 146.61C379.584 148.01 381.171 148.92 384.344 149.34C387.424 149.667 390.411 150.553 393.304 152C394.657 152.653 395.777 153.797 396.664 155.43C397.597 157.017 398.064 159.023 398.064 161.45C398.064 163.877 397.597 165.953 396.664 167.68C395.777 169.36 394.517 170.62 392.884 171.46C389.897 172.907 386.141 173.63 381.614 173.63C377.134 173.63 372.817 172.323 368.664 169.71Z" fill="#5E81AC"/>
</svg>
